<svg id="svg" version="1.1" xmlns="http://www.w3.org/2000/svg" xmlns:xlink="http://www.w3.org/1999/xlink" width="400" height="277.02702702702703" viewBox="0, 0, 400,277.02702702702703"><g id="svgg"><path id="path0" d="M125.405 36.689 C 125.405 36.801,126.104 36.858,126.959 36.816 C 129.671 36.682,129.937 36.569,127.635 36.527 C 126.409 36.505,125.405 36.578,125.405 36.689 M132.230 36.680 C 132.639 36.742,133.307 36.742,133.716 36.680 C 134.125 36.618,133.791 36.567,132.973 36.567 C 132.155 36.567,131.821 36.618,132.230 36.680 M140.147 36.990 C 141.519 37.827,142.139 39.355,144.604 47.973 C 146.016 52.908,147.872 55.375,151.423 57.037 C 153.094 57.819,156.269 58.478,155.405 57.864 C 155.182 57.706,154.666 57.574,154.257 57.572 C 153.848 57.569,153.514 57.446,153.514 57.297 C 153.514 57.149,153.149 57.027,152.703 57.027 C 152.257 57.027,151.892 56.905,151.892 56.757 C 151.892 56.608,151.709 56.486,151.486 56.486 C 151.264 56.486,151.081 56.365,151.081 56.216 C 151.081 56.068,150.961 55.946,150.814 55.946 C 150.563 55.946,149.855 55.433,149.043 54.662 C 148.847 54.476,148.557 54.324,148.398 54.324 C 148.238 54.324,148.108 54.081,148.108 53.784 C 148.108 53.483,147.928 53.243,147.703 53.243 C 147.449 53.243,147.297 52.987,147.297 52.559 C 147.297 52.183,147.115 51.805,146.892 51.719 C 146.661 51.631,146.486 51.228,146.486 50.782 C 146.486 50.267,146.348 50.000,146.081 50.000 C 145.780 50.000,145.676 49.684,145.676 48.775 C 145.676 47.936,145.548 47.502,145.270 47.395 C 144.986 47.286,144.865 46.843,144.865 45.917 C 144.865 44.922,144.765 44.595,144.459 44.595 C 144.153 44.595,144.054 44.264,144.054 43.243 C 144.054 42.222,143.955 41.892,143.649 41.892 C 143.357 41.892,143.243 41.594,143.243 40.836 C 143.243 39.634,142.014 37.027,141.448 37.027 C 141.246 37.027,141.081 36.905,141.081 36.757 C 141.081 36.608,140.686 36.487,140.203 36.487 L 139.324 36.489 140.147 36.990 M123.863 37.500 C 123.768 37.760,123.528 38.070,123.331 38.189 C 123.134 38.308,122.978 38.794,122.984 39.270 L 122.994 40.135 123.375 39.258 C 123.585 38.776,124.061 38.076,124.434 37.704 C 125.062 37.076,125.072 37.027,124.574 37.027 C 124.279 37.027,123.959 37.240,123.863 37.500 M122.342 40.450 C 122.243 40.550,122.162 41.150,122.162 41.786 C 122.162 42.421,122.041 43.016,121.892 43.108 C 121.743 43.200,121.628 43.785,121.635 44.408 C 121.646 45.370,121.748 45.154,122.311 42.976 C 123.074 40.021,123.078 39.715,122.342 40.450 M181.622 48.269 C 189.151 52.328,189.797 53.047,188.841 56.298 C 185.311 68.306,185.531 73.479,189.737 77.414 C 191.711 79.260,195.676 80.987,195.676 80.000 C 195.676 79.851,195.311 79.730,194.865 79.730 C 194.419 79.730,194.054 79.608,194.054 79.459 C 194.054 79.311,193.799 79.189,193.488 79.189 C 192.942 79.189,191.311 78.216,191.126 77.780 C 191.077 77.663,190.864 77.568,190.653 77.568 C 190.443 77.568,190.270 77.324,190.270 77.027 C 190.270 76.727,190.090 76.486,189.865 76.486 C 189.640 76.486,189.459 76.246,189.459 75.946 C 189.459 75.646,189.279 75.405,189.054 75.405 C 188.829 75.405,188.649 75.165,188.649 74.865 C 188.649 74.565,188.468 74.324,188.243 74.324 C 187.959 74.324,187.838 74.038,187.838 73.370 C 187.838 72.771,187.687 72.358,187.432 72.260 C 187.106 72.135,187.027 71.528,187.027 69.160 C 187.027 66.724,187.097 66.216,187.432 66.216 C 187.748 66.216,187.838 65.856,187.838 64.595 C 187.838 63.333,187.928 62.973,188.243 62.973 C 188.565 62.973,188.649 62.583,188.649 61.081 C 188.649 59.580,188.732 59.189,189.054 59.189 C 189.369 59.189,189.459 58.832,189.459 57.596 C 189.459 56.430,189.568 55.962,189.865 55.848 C 190.103 55.757,190.270 55.351,190.270 54.865 C 190.270 54.378,190.103 53.973,189.865 53.882 C 189.634 53.793,189.459 53.390,189.459 52.944 C 189.459 52.429,189.321 52.162,189.054 52.162 C 188.831 52.162,188.649 51.994,188.649 51.788 C 188.649 51.311,187.486 50.541,186.766 50.541 C 186.464 50.541,186.216 50.419,186.216 50.270 C 186.216 50.122,186.090 50.000,185.935 50.000 C 185.780 50.000,185.392 49.757,185.073 49.459 C 184.754 49.162,184.212 48.919,183.868 48.919 C 183.524 48.919,183.243 48.797,183.243 48.649 C 183.243 48.500,183.061 48.378,182.838 48.378 C 182.615 48.378,182.431 48.287,182.430 48.176 C 182.427 47.901,181.091 47.297,180.487 47.297 C 180.219 47.297,180.000 47.176,180.000 47.027 C 180.000 46.878,179.818 46.757,179.595 46.757 C 179.372 46.757,179.189 46.635,179.189 46.486 C 179.189 46.338,179.007 46.216,178.784 46.216 C 178.561 46.216,178.378 46.095,178.378 45.946 C 178.378 45.797,178.196 45.676,177.973 45.676 C 177.750 45.676,177.568 45.554,177.568 45.405 C 177.568 45.257,177.172 45.135,176.689 45.136 C 175.981 45.136,176.940 45.745,181.622 48.269 M171.932 46.650 C 171.731 46.877,171.621 47.116,171.686 47.182 C 171.752 47.247,172.026 47.057,172.296 46.758 C 172.566 46.460,172.676 46.221,172.542 46.226 C 172.407 46.232,172.133 46.423,171.932 46.650 M120.838 47.770 C 120.862 48.675,120.888 48.711,121.081 48.108 C 121.390 47.142,121.390 46.757,121.081 46.757 C 120.932 46.757,120.823 47.213,120.838 47.770 M90.508 47.589 C 92.313 47.944,93.900 49.209,99.838 55.028 C 102.803 57.934,107.297 60.299,107.297 58.954 C 107.297 58.786,107.000 58.649,106.638 58.649 C 106.275 58.649,105.903 58.527,105.811 58.378 C 105.719 58.230,105.347 58.108,104.984 58.108 C 104.621 58.108,104.324 57.986,104.324 57.838 C 104.324 57.689,104.142 57.568,103.919 57.568 C 103.696 57.568,103.514 57.446,103.514 57.297 C 103.514 57.149,103.331 57.027,103.108 57.027 C 102.885 57.027,102.703 56.905,102.703 56.757 C 102.703 56.608,102.581 56.486,102.432 56.486 C 102.284 56.486,101.919 56.243,101.622 55.946 C 101.324 55.649,101.081 55.284,101.081 55.135 C 101.081 54.986,100.925 54.865,100.735 54.865 C 100.545 54.865,100.211 54.603,99.992 54.282 C 99.773 53.962,99.368 53.506,99.091 53.269 C 98.815 53.032,98.428 52.686,98.232 52.500 C 98.037 52.314,97.746 52.162,97.587 52.162 C 97.428 52.162,97.297 52.007,97.297 51.817 C 97.297 51.429,96.354 50.541,95.943 50.541 C 95.796 50.541,95.676 50.419,95.676 50.270 C 95.676 50.122,95.493 50.000,95.270 50.000 C 95.045 50.000,94.865 49.760,94.865 49.459 C 94.865 49.159,94.685 48.919,94.459 48.919 C 94.236 48.919,94.054 48.797,94.054 48.649 C 94.054 48.500,93.872 48.378,93.649 48.378 C 93.426 48.378,93.243 48.257,93.243 48.108 C 93.243 47.959,92.946 47.838,92.584 47.838 C 92.221 47.838,91.849 47.716,91.757 47.568 C 91.665 47.419,91.080 47.311,90.457 47.327 L 89.324 47.357 90.508 47.589 M87.838 48.108 C 87.838 48.257,87.655 48.378,87.432 48.378 C 87.209 48.378,87.027 48.472,87.027 48.586 C 87.027 48.700,86.693 49.001,86.284 49.255 C 85.875 49.508,85.662 49.716,85.811 49.716 C 85.959 49.717,86.750 49.297,87.568 48.784 C 88.705 48.069,88.911 47.849,88.446 47.844 C 88.111 47.841,87.838 47.959,87.838 48.108 M169.616 48.934 C 169.331 49.222,169.158 49.518,169.232 49.592 C 169.306 49.667,169.652 49.424,170.001 49.053 C 170.739 48.267,170.386 48.158,169.616 48.934 M83.784 50.541 C 83.412 50.831,82.956 51.072,82.770 51.075 C 82.584 51.078,82.432 51.203,82.432 51.351 C 82.432 51.500,82.250 51.622,82.027 51.622 C 81.804 51.622,81.622 51.743,81.622 51.892 C 81.622 52.041,81.439 52.162,81.216 52.162 C 80.993 52.162,80.811 52.284,80.811 52.432 C 80.811 52.581,80.684 52.703,80.529 52.703 C 80.374 52.703,79.987 52.946,79.667 53.243 C 79.348 53.541,78.874 53.784,78.614 53.784 C 78.353 53.784,78.060 53.913,77.962 54.072 C 77.561 54.721,78.139 54.581,79.502 53.700 C 80.296 53.186,81.975 52.144,83.232 51.383 C 84.489 50.622,85.280 50.003,84.989 50.006 C 84.698 50.009,84.155 50.250,83.784 50.541 M120.105 50.386 C 120.024 50.598,119.997 51.054,120.046 51.399 C 120.121 51.925,120.186 51.863,120.448 51.014 C 120.741 50.063,120.441 49.512,120.105 50.386 M168.041 50.563 C 167.780 50.848,167.568 51.203,167.568 51.351 C 167.568 51.500,167.385 51.622,167.162 51.622 C 166.939 51.622,166.757 51.777,166.757 51.967 C 166.757 52.296,165.837 53.243,165.518 53.243 C 165.282 53.243,164.595 53.989,164.595 54.245 C 164.595 54.542,163.587 55.405,163.240 55.405 C 163.093 55.405,162.973 55.527,162.973 55.676 C 162.973 55.824,162.791 55.946,162.568 55.946 C 162.345 55.946,162.162 56.068,162.162 56.216 C 162.162 56.365,161.980 56.486,161.757 56.486 C 161.534 56.486,161.351 56.616,161.351 56.774 C 161.351 57.443,163.723 55.641,166.227 53.071 C 167.708 51.551,168.919 50.238,168.919 50.154 C 168.919 49.858,168.510 50.049,168.041 50.563 M119.369 52.342 C 119.270 52.441,119.193 52.776,119.198 53.086 C 119.206 53.639,119.213 53.639,119.603 53.124 C 120.174 52.369,119.983 51.729,119.369 52.342 M118.378 54.324 C 118.378 54.622,118.257 54.865,118.108 54.865 C 117.959 54.865,117.595 55.108,117.297 55.405 C 117.000 55.703,116.757 56.068,116.757 56.216 C 116.757 56.365,116.630 56.486,116.475 56.486 C 116.320 56.486,115.933 56.730,115.613 57.027 C 114.736 57.845,115.505 57.675,116.531 56.824 C 118.280 55.374,119.466 53.784,118.797 53.784 C 118.559 53.784,118.378 54.016,118.378 54.324 M77.031 55.473 C 77.035 55.965,77.085 56.004,77.297 55.676 C 77.636 55.152,77.636 54.865,77.297 54.865 C 77.149 54.865,77.029 55.139,77.031 55.473 M159.865 57.297 C 159.773 57.446,159.219 57.568,158.633 57.568 C 158.032 57.568,157.568 57.698,157.568 57.868 C 157.568 58.224,159.149 57.980,160.397 57.431 C 161.100 57.122,161.133 57.068,160.624 57.049 C 160.298 57.037,159.957 57.149,159.865 57.297 M112.973 58.378 C 112.973 58.527,112.608 58.649,112.162 58.649 C 111.716 58.649,111.351 58.783,111.351 58.948 C 111.351 59.284,112.277 59.109,113.619 58.521 L 114.459 58.152 113.716 58.130 C 113.307 58.118,112.973 58.230,112.973 58.378 M77.045 60.068 C 77.031 61.037,77.126 61.351,77.432 61.351 C 77.655 61.351,77.836 61.321,77.834 61.284 C 77.831 61.247,77.657 60.669,77.446 60.000 L 77.063 58.784 77.045 60.068 M108.305 59.384 C 108.785 59.444,109.636 59.445,110.197 59.386 C 110.757 59.328,110.365 59.279,109.324 59.278 C 108.284 59.277,107.825 59.325,108.305 59.384 M77.838 62.957 C 77.838 63.263,77.959 63.514,78.108 63.514 C 78.257 63.514,78.378 63.338,78.378 63.124 C 78.378 62.910,78.257 62.659,78.108 62.568 C 77.959 62.476,77.838 62.651,77.838 62.957 M78.649 65.631 C 78.649 66.250,78.770 66.757,78.919 66.757 C 79.068 66.757,79.189 67.228,79.189 67.805 C 79.189 68.407,79.362 68.996,79.595 69.189 C 79.911 69.451,80.007 70.248,80.032 72.803 C 80.052 74.898,80.138 75.789,80.270 75.270 C 80.751 73.380,80.551 70.765,79.694 67.728 C 78.711 64.250,78.649 64.124,78.649 65.631 M79.353 76.644 C 79.016 77.523,79.192 78.001,79.595 77.297 C 79.807 76.926,79.985 76.530,79.990 76.419 C 80.008 76.041,79.518 76.214,79.353 76.644 M213.108 76.750 C 213.405 76.875,214.039 77.122,214.517 77.301 C 215.305 77.595,217.641 80.543,218.156 81.892 C 218.241 82.115,219.299 83.930,220.507 85.925 C 223.774 91.322,223.993 90.688,215.964 99.058 C 213.789 101.325,212.861 102.528,212.072 104.101 C 208.881 110.464,212.575 118.768,219.268 120.277 C 228.773 122.419,232.500 123.774,233.146 125.320 C 233.775 126.825,234.005 138.788,233.426 139.907 C 232.761 141.194,230.047 142.585,226.892 143.255 C 225.536 143.544,221.131 144.912,219.271 145.623 C 212.334 148.273,209.909 157.598,214.613 163.537 C 215.492 164.647,215.946 164.869,215.946 164.189 C 215.946 163.966,215.764 163.784,215.541 163.784 C 215.315 163.784,215.135 163.544,215.135 163.243 C 215.135 162.943,214.955 162.703,214.730 162.703 C 214.505 162.703,214.324 162.462,214.324 162.162 C 214.324 161.865,214.203 161.622,214.054 161.622 C 213.905 161.622,213.784 161.192,213.784 160.667 C 213.784 160.068,213.633 159.655,213.378 159.557 C 213.056 159.434,212.973 158.859,212.973 156.761 C 212.973 154.743,213.069 154.041,213.378 153.784 C 213.601 153.599,213.784 153.177,213.784 152.846 C 213.784 152.118,214.537 150.541,214.885 150.541 C 215.022 150.541,215.135 150.371,215.135 150.164 C 215.135 149.957,215.318 149.718,215.541 149.632 C 215.764 149.546,215.946 149.320,215.946 149.128 C 215.946 148.146,220.401 145.912,224.730 144.723 C 228.028 143.817,232.432 142.323,232.432 142.111 C 232.432 141.990,232.615 141.892,232.838 141.892 C 233.061 141.892,233.243 141.770,233.243 141.622 C 233.243 141.473,233.426 141.351,233.649 141.351 C 233.874 141.351,234.054 141.111,234.054 140.811 C 234.054 140.505,234.234 140.270,234.469 140.270 C 235.062 140.270,235.024 126.801,234.430 126.573 C 234.223 126.494,234.054 126.081,234.054 125.656 C 234.054 124.683,232.746 123.292,231.619 123.067 C 231.168 122.977,230.734 122.797,230.654 122.668 C 230.574 122.538,230.037 122.432,229.459 122.432 C 228.882 122.432,228.335 122.311,228.243 122.162 C 228.151 122.014,227.665 121.892,227.162 121.892 C 226.659 121.892,226.173 121.770,226.081 121.622 C 225.989 121.473,225.442 121.351,224.865 121.351 C 224.288 121.351,223.741 121.230,223.649 121.081 C 223.557 120.932,223.192 120.811,222.838 120.811 C 222.484 120.811,222.119 120.689,222.027 120.541 C 221.935 120.392,221.569 120.270,221.213 120.270 C 220.857 120.270,220.226 120.134,219.810 119.967 C 218.310 119.364,216.079 118.239,215.991 118.041 C 215.941 117.929,215.729 117.838,215.518 117.838 C 215.307 117.838,215.135 117.655,215.135 117.432 C 215.135 117.209,214.953 117.027,214.730 117.027 C 214.507 117.027,214.324 116.886,214.324 116.715 C 214.324 116.543,214.020 116.004,213.649 115.517 C 213.277 115.029,212.973 114.392,212.973 114.101 C 212.973 113.810,212.791 113.501,212.568 113.416 C 212.234 113.288,212.162 112.590,212.162 109.468 C 212.162 106.277,212.226 105.676,212.568 105.676 C 212.838 105.676,212.973 105.405,212.973 104.865 C 212.973 104.419,213.092 104.054,213.238 104.054 C 213.384 104.054,213.587 103.721,213.689 103.313 C 213.892 102.505,214.391 101.892,214.846 101.892 C 215.005 101.892,215.135 101.649,215.135 101.351 C 215.135 101.051,215.315 100.811,215.541 100.811 C 215.764 100.811,215.946 100.689,215.946 100.541 C 215.946 100.392,216.128 100.270,216.351 100.270 C 216.577 100.270,216.757 100.030,216.757 99.730 C 216.757 99.429,216.937 99.189,217.162 99.189 C 217.387 99.189,217.568 98.949,217.568 98.649 C 217.568 98.348,217.748 98.108,217.973 98.108 C 218.196 98.108,218.378 97.986,218.378 97.838 C 218.378 97.689,218.561 97.568,218.784 97.568 C 219.009 97.568,219.189 97.327,219.189 97.027 C 219.189 96.730,219.309 96.486,219.456 96.486 C 219.803 96.486,220.811 95.623,220.811 95.326 C 220.811 95.001,221.528 94.324,221.873 94.324 C 222.032 94.324,222.162 94.081,222.162 93.784 C 222.162 93.483,222.342 93.243,222.568 93.243 C 222.860 93.243,222.973 92.943,222.973 92.162 C 222.973 91.381,223.086 91.081,223.378 91.081 C 223.601 91.081,223.784 90.912,223.784 90.705 C 223.784 90.498,223.601 90.258,223.378 90.173 C 223.111 90.070,222.973 89.647,222.973 88.927 C 222.973 88.139,222.861 87.838,222.568 87.838 C 222.342 87.838,222.162 87.598,222.162 87.297 C 222.162 86.997,221.982 86.757,221.757 86.757 C 221.486 86.757,221.351 86.486,221.351 85.946 C 221.351 85.500,221.230 85.135,221.081 85.135 C 220.932 85.135,220.811 84.949,220.811 84.721 C 220.811 84.494,220.628 84.237,220.405 84.152 C 220.182 84.066,220.000 83.823,220.000 83.611 C 220.000 83.400,219.818 83.156,219.595 83.071 C 219.372 82.985,219.189 82.681,219.189 82.395 C 219.189 82.109,219.007 81.805,218.784 81.719 C 218.561 81.634,218.378 81.273,218.378 80.917 C 218.378 80.522,218.220 80.270,217.973 80.270 C 217.703 80.270,217.568 80.000,217.568 79.459 C 217.568 78.919,217.432 78.649,217.162 78.649 C 216.937 78.649,216.757 78.408,216.757 78.108 C 216.757 77.808,216.577 77.568,216.351 77.568 C 216.128 77.568,215.946 77.446,215.946 77.297 C 215.946 77.149,215.588 77.027,215.151 77.027 C 214.714 77.027,214.281 76.905,214.189 76.757 C 214.097 76.608,213.695 76.495,213.295 76.505 C 212.649 76.521,212.628 76.548,213.108 76.750 M209.895 77.248 C 209.820 77.370,210.117 77.417,210.555 77.353 C 210.993 77.289,211.351 77.189,211.351 77.131 C 211.351 76.926,210.029 77.032,209.895 77.248 M208.243 77.838 C 208.046 78.158,208.310 78.158,209.054 77.838 C 209.575 77.614,209.573 77.605,209.002 77.587 C 208.677 77.576,208.335 77.689,208.243 77.838 M205.946 78.378 C 205.946 78.720,206.498 78.720,207.027 78.378 C 207.343 78.174,207.268 78.115,206.689 78.112 C 206.280 78.110,205.946 78.230,205.946 78.378 M204.324 78.919 C 204.324 79.236,204.532 79.236,205.270 78.919 C 205.749 78.713,205.726 78.684,205.068 78.668 C 204.659 78.657,204.324 78.770,204.324 78.919 M128.745 79.588 C 123.042 80.278,116.653 82.004,112.703 83.920 C 108.339 86.037,108.389 85.988,109.730 86.837 C 110.562 87.364,110.587 87.365,110.533 86.866 C 110.436 85.954,110.532 85.676,110.946 85.676 C 111.169 85.676,111.351 85.554,111.351 85.405 C 111.351 85.257,111.570 85.135,111.838 85.135 C 112.442 85.135,113.779 84.531,113.782 84.257 C 113.783 84.145,114.088 84.054,114.459 84.054 C 114.831 84.054,115.135 83.932,115.135 83.784 C 115.135 83.635,115.500 83.514,115.946 83.514 C 116.392 83.514,116.757 83.392,116.757 83.243 C 116.757 83.095,117.122 82.973,117.568 82.973 C 118.014 82.973,118.378 82.851,118.378 82.703 C 118.378 82.554,118.743 82.432,119.189 82.432 C 119.635 82.432,120.000 82.311,120.000 82.162 C 120.000 82.014,120.304 81.892,120.676 81.892 C 121.047 81.892,121.351 81.770,121.351 81.622 C 121.351 81.473,121.899 81.351,122.568 81.351 C 123.236 81.351,123.784 81.230,123.784 81.081 C 123.784 80.932,124.331 80.811,125.000 80.811 C 125.669 80.811,126.216 80.689,126.216 80.541 C 126.216 80.378,127.297 80.270,128.919 80.270 C 130.541 80.270,131.622 80.162,131.622 80.000 C 131.622 79.830,133.378 79.730,136.351 79.730 C 139.324 79.730,141.081 79.830,141.081 80.000 C 141.081 80.149,141.743 80.270,142.552 80.270 C 143.360 80.270,144.097 80.392,144.189 80.541 C 144.281 80.689,145.018 80.811,145.827 80.811 C 146.636 80.811,147.297 80.932,147.297 81.081 C 147.297 81.230,147.845 81.351,148.514 81.351 C 149.182 81.351,149.730 81.473,149.730 81.622 C 149.730 81.770,150.027 81.892,150.389 81.892 C 150.752 81.892,151.124 82.014,151.216 82.162 C 151.308 82.311,151.863 82.432,152.448 82.432 C 153.034 82.432,153.514 82.554,153.514 82.703 C 153.514 82.851,153.878 82.973,154.324 82.973 C 154.770 82.973,155.135 83.095,155.135 83.243 C 155.135 83.392,155.318 83.514,155.541 83.514 C 155.764 83.514,155.946 83.635,155.946 83.784 C 155.946 83.932,156.227 84.054,156.571 84.054 C 156.914 84.054,157.431 84.270,157.719 84.534 C 158.007 84.798,158.760 85.182,159.392 85.388 C 160.024 85.594,160.541 85.864,160.541 85.989 C 160.541 86.114,160.723 86.216,160.946 86.216 C 161.169 86.216,161.351 86.338,161.351 86.486 C 161.351 86.635,161.534 86.757,161.757 86.757 C 161.980 86.757,162.162 86.878,162.162 87.027 C 162.162 87.176,162.475 87.297,162.857 87.297 C 163.239 87.297,163.712 87.449,163.908 87.635 C 164.720 88.406,165.428 88.919,165.679 88.919 C 165.826 88.919,165.946 89.041,165.946 89.189 C 165.946 89.338,166.128 89.459,166.351 89.459 C 166.574 89.459,166.757 89.581,166.757 89.730 C 166.757 89.878,166.939 90.000,167.162 90.000 C 167.385 90.000,167.568 90.122,167.568 90.270 C 167.568 90.419,167.750 90.541,167.973 90.541 C 168.196 90.541,168.378 90.662,168.378 90.811 C 168.378 90.959,168.561 91.081,168.784 91.081 C 169.007 91.081,169.189 91.203,169.189 91.351 C 169.189 91.500,169.372 91.622,169.595 91.622 C 169.818 91.622,170.000 91.743,170.000 91.892 C 170.000 92.041,170.182 92.162,170.405 92.162 C 170.631 92.162,170.811 92.402,170.811 92.703 C 170.811 93.000,170.966 93.243,171.157 93.243 C 171.347 93.243,171.678 93.486,171.892 93.784 C 172.106 94.081,172.437 94.324,172.627 94.324 C 172.817 94.324,172.973 94.480,172.973 94.670 C 172.973 95.057,173.916 95.946,174.327 95.946 C 174.474 95.946,174.595 96.068,174.595 96.216 C 174.595 96.365,174.777 96.486,175.000 96.486 C 175.225 96.486,175.405 96.727,175.405 97.027 C 175.405 97.327,175.586 97.568,175.811 97.568 C 176.034 97.568,176.216 97.689,176.216 97.838 C 176.216 97.986,176.399 98.108,176.622 98.108 C 176.847 98.108,177.027 98.348,177.027 98.649 C 177.027 98.949,177.207 99.189,177.432 99.189 C 177.658 99.189,177.838 99.429,177.838 99.730 C 177.838 100.030,178.018 100.270,178.243 100.270 C 178.466 100.270,178.649 100.461,178.649 100.695 C 178.649 101.180,179.280 101.892,179.710 101.892 C 179.870 101.892,180.000 102.135,180.000 102.432 C 180.000 102.733,180.180 102.973,180.405 102.973 C 180.631 102.973,180.811 103.213,180.811 103.514 C 180.811 103.814,180.991 104.054,181.216 104.054 C 181.486 104.054,181.622 104.324,181.622 104.865 C 181.622 105.405,181.757 105.676,182.027 105.676 C 182.252 105.676,182.432 105.916,182.432 106.216 C 182.432 106.517,182.613 106.757,182.838 106.757 C 183.108 106.757,183.243 107.027,183.243 107.568 C 183.243 108.108,183.378 108.378,183.649 108.378 C 185.246 108.378,179.204 99.999,173.891 94.846 C 161.943 83.256,145.197 77.596,128.745 79.588 M200.541 79.963 C 200.541 80.091,200.845 80.137,201.216 80.066 C 201.588 79.995,201.892 79.890,201.892 79.833 C 201.892 79.776,201.588 79.730,201.216 79.730 C 200.845 79.730,200.541 79.834,200.541 79.963 M77.027 80.541 C 77.027 80.689,76.855 80.811,76.644 80.811 C 76.434 80.811,76.221 80.909,76.171 81.029 C 76.122 81.149,75.503 81.642,74.797 82.123 C 73.132 83.259,73.155 83.472,74.845 82.552 C 76.231 81.798,77.906 80.270,77.348 80.270 C 77.171 80.270,77.027 80.392,77.027 80.541 M197.365 80.467 C 197.922 80.525,198.834 80.525,199.392 80.467 C 199.949 80.409,199.493 80.361,198.378 80.361 C 197.264 80.361,196.807 80.409,197.365 80.467 M53.587 80.975 C 53.840 81.227,57.297 81.280,57.297 81.031 C 57.297 80.910,56.426 80.811,55.360 80.811 C 54.295 80.811,53.497 80.885,53.587 80.975 M51.689 81.804 C 51.355 82.037,51.081 82.396,51.081 82.601 C 51.081 82.805,50.962 82.973,50.816 82.973 C 50.670 82.973,50.469 83.307,50.369 83.716 C 50.269 84.125,50.072 84.535,49.932 84.627 C 49.791 84.719,49.719 85.017,49.772 85.289 C 49.837 85.628,50.147 85.259,50.754 84.120 C 51.241 83.206,51.956 82.208,52.343 81.904 C 53.160 81.262,52.591 81.174,51.689 81.804 M57.838 81.433 C 57.838 81.603,60.812 82.584,62.128 82.848 C 62.765 82.975,62.985 82.940,62.856 82.732 C 62.754 82.567,62.381 82.432,62.027 82.432 C 61.673 82.432,61.316 82.324,61.235 82.192 C 61.153 82.060,60.690 81.886,60.205 81.806 C 59.721 81.726,58.990 81.577,58.581 81.474 C 58.172 81.372,57.838 81.353,57.838 81.433 M63.536 83.070 C 63.859 83.348,65.135 83.491,65.135 83.248 C 65.135 83.097,64.750 82.973,64.279 82.973 C 63.809 82.973,63.474 83.017,63.536 83.070 M66.081 83.784 C 66.832 84.107,67.568 84.107,67.568 83.784 C 67.568 83.635,67.111 83.522,66.554 83.533 C 65.741 83.548,65.647 83.597,66.081 83.784 M70.405 83.796 C 70.029 83.967,70.192 83.991,70.946 83.877 C 71.541 83.786,72.078 83.667,72.140 83.613 C 72.372 83.408,70.924 83.561,70.405 83.796 M111.644 87.945 C 111.730 88.026,121.788 94.203,122.770 94.778 C 122.882 94.843,122.973 94.768,122.973 94.611 C 122.973 94.453,122.791 94.324,122.568 94.324 C 122.345 94.324,122.162 94.203,122.162 94.054 C 122.162 93.905,121.980 93.784,121.757 93.784 C 121.534 93.784,121.351 93.693,121.350 93.581 C 121.349 93.470,120.681 92.953,119.865 92.432 C 119.049 91.912,118.381 91.395,118.380 91.284 C 118.379 91.172,118.196 91.081,117.973 91.081 C 117.750 91.081,117.568 90.959,117.568 90.811 C 117.568 90.662,117.437 90.541,117.278 90.541 C 117.119 90.541,116.459 90.176,115.811 89.730 C 115.163 89.284,114.472 88.916,114.276 88.913 C 114.079 88.910,113.615 88.669,113.243 88.378 C 112.700 87.953,111.234 87.556,111.644 87.945 M47.398 89.315 C 47.114 90.057,47.451 90.335,47.775 89.625 C 47.977 89.182,47.995 88.919,47.824 88.919 C 47.673 88.919,47.482 89.097,47.398 89.315 M46.491 91.149 C 46.494 91.640,46.545 91.679,46.757 91.351 C 47.095 90.827,47.095 90.541,46.757 90.541 C 46.608 90.541,46.488 90.814,46.491 91.149 M45.680 92.770 C 45.683 93.262,45.734 93.301,45.946 92.973 C 46.285 92.449,46.285 92.162,45.946 92.162 C 45.797 92.162,45.678 92.436,45.680 92.770 M45.045 93.964 C 44.653 94.356,44.849 97.027,45.270 97.027 C 45.495 97.027,45.676 97.267,45.676 97.568 C 45.676 97.868,45.856 98.108,46.081 98.108 C 46.306 98.108,46.486 98.348,46.486 98.649 C 46.486 98.949,46.667 99.189,46.892 99.189 C 47.115 99.189,47.297 99.311,47.297 99.459 C 47.297 99.608,47.480 99.730,47.703 99.730 C 47.926 99.730,48.108 99.851,48.108 100.000 C 48.108 100.149,48.291 100.270,48.514 100.270 C 48.736 100.270,48.919 100.392,48.919 100.541 C 48.919 100.689,49.068 100.811,49.250 100.811 C 49.431 100.811,48.768 99.990,47.775 98.986 C 45.837 97.028,45.023 95.542,45.295 94.457 C 45.464 93.784,45.384 93.625,45.045 93.964 M123.392 95.105 C 123.649 95.346,132.356 100.686,142.095 106.575 C 144.956 108.305,147.297 109.628,147.297 109.515 C 147.297 109.236,146.275 108.378,145.943 108.378 C 145.796 108.378,145.676 108.257,145.676 108.108 C 145.676 107.959,145.546 107.838,145.387 107.838 C 145.228 107.838,144.567 107.473,143.919 107.027 C 143.271 106.581,142.572 106.216,142.367 106.216 C 142.162 106.216,141.733 105.973,141.414 105.676 C 141.095 105.378,140.707 105.135,140.552 105.135 C 140.397 105.135,140.270 105.014,140.270 104.865 C 140.270 104.716,140.088 104.595,139.865 104.595 C 139.642 104.595,139.459 104.473,139.459 104.324 C 139.459 104.176,139.277 104.054,139.054 104.054 C 138.831 104.054,138.649 103.932,138.649 103.784 C 138.649 103.635,138.466 103.514,138.243 103.514 C 138.020 103.514,137.838 103.392,137.838 103.243 C 137.838 103.095,137.666 102.973,137.455 102.973 C 137.244 102.973,137.032 102.882,136.982 102.770 C 136.932 102.659,136.094 102.172,135.118 101.689 C 134.142 101.205,133.083 100.567,132.764 100.270 C 132.446 99.973,132.088 99.727,131.971 99.724 C 131.853 99.720,131.453 99.480,131.081 99.189 C 130.709 98.899,130.132 98.658,129.797 98.655 C 129.463 98.651,129.189 98.527,129.189 98.378 C 129.189 98.230,129.007 98.108,128.784 98.108 C 128.561 98.108,128.378 98.015,128.378 97.902 C 128.378 97.788,127.892 97.395,127.297 97.027 C 126.703 96.660,126.216 96.266,126.216 96.152 C 126.216 96.039,126.034 95.946,125.811 95.946 C 125.588 95.946,125.404 95.855,125.403 95.743 C 125.402 95.632,125.074 95.389,124.674 95.203 C 123.824 94.808,123.008 94.746,123.392 95.105 M49.730 101.345 C 49.730 101.740,50.406 102.432,50.792 102.432 C 50.951 102.432,51.081 102.676,51.081 102.973 C 51.081 103.273,51.261 103.514,51.486 103.514 C 51.709 103.514,51.892 103.635,51.892 103.784 C 51.892 103.932,52.074 104.054,52.297 104.054 C 52.523 104.054,52.703 104.294,52.703 104.595 C 52.703 104.895,52.883 105.135,53.108 105.135 C 53.331 105.135,53.514 105.257,53.514 105.405 C 53.514 105.554,53.696 105.676,53.919 105.676 C 54.142 105.676,54.324 105.797,54.324 105.946 C 54.324 106.095,54.507 106.216,54.730 106.216 C 54.955 106.216,55.135 106.456,55.135 106.757 C 55.135 107.057,55.315 107.297,55.541 107.297 C 55.766 107.297,55.946 107.538,55.946 107.838 C 55.946 108.144,56.126 108.378,56.361 108.378 C 57.007 108.378,56.446 107.541,54.252 105.232 C 51.973 102.832,49.730 100.904,49.730 101.345 M184.054 109.324 C 184.054 109.745,184.207 110.000,184.459 110.000 C 184.713 110.000,184.865 110.256,184.865 110.684 C 184.865 111.060,185.047 111.438,185.270 111.524 C 185.493 111.609,185.676 111.910,185.676 112.191 C 185.676 112.472,185.797 112.703,185.946 112.703 C 186.095 112.703,186.216 113.059,186.216 113.494 C 186.216 113.930,186.399 114.468,186.622 114.691 C 186.845 114.914,187.027 115.401,187.027 115.772 C 187.027 116.144,187.209 116.630,187.432 116.853 C 187.655 117.076,187.838 117.678,187.838 118.191 C 187.838 118.704,188.020 119.274,188.243 119.459 C 188.476 119.653,188.649 120.242,188.649 120.844 C 188.649 121.595,188.763 121.892,189.054 121.892 C 189.596 121.892,189.575 121.698,188.748 119.114 C 187.199 114.273,184.742 108.649,184.176 108.649 C 184.109 108.649,184.054 108.953,184.054 109.324 M57.427 111.195 C 57.576 112.577,57.715 112.915,58.014 112.617 C 58.110 112.520,57.986 111.861,57.736 111.153 L 57.283 109.865 57.427 111.195 M146.950 110.623 C 146.875 110.817,146.315 111.140,145.704 111.342 C 145.094 111.543,144.595 111.802,144.595 111.916 C 144.595 112.031,143.713 112.617,142.635 113.219 C 140.442 114.444,138.590 115.946,139.272 115.946 C 139.506 115.946,139.773 115.824,139.865 115.676 C 139.957 115.527,140.268 115.405,140.556 115.405 C 140.845 115.405,141.081 115.284,141.081 115.135 C 141.081 114.986,141.237 114.865,141.427 114.865 C 141.617 114.865,141.948 114.622,142.162 114.324 C 142.376 114.027,142.707 113.784,142.898 113.784 C 143.088 113.784,143.243 113.662,143.243 113.514 C 143.243 113.365,143.426 113.243,143.649 113.243 C 143.872 113.243,144.054 113.122,144.054 112.973 C 144.054 112.824,144.236 112.703,144.459 112.703 C 144.682 112.703,144.865 112.581,144.865 112.432 C 144.865 112.284,145.101 112.162,145.389 112.162 C 145.678 112.162,145.989 112.041,146.081 111.892 C 146.173 111.743,146.484 111.622,146.773 111.622 C 147.152 111.622,147.297 111.435,147.297 110.946 C 147.297 110.204,147.159 110.076,146.950 110.623 M57.613 115.861 C 57.439 116.186,57.297 116.763,57.297 117.144 C 57.297 117.526,57.176 117.838,57.027 117.838 C 56.878 117.838,56.757 118.207,56.757 118.657 C 56.757 119.136,56.588 119.541,56.351 119.632 C 56.128 119.718,55.946 120.005,55.946 120.270 C 55.946 120.536,55.764 120.823,55.541 120.909 C 55.318 120.994,55.135 121.197,55.135 121.359 C 55.135 122.421,56.816 119.798,57.570 117.560 C 58.149 115.842,58.175 114.811,57.613 115.861 M152.796 115.743 C 152.727 115.855,152.428 115.946,152.132 115.946 C 151.835 115.946,151.143 116.264,150.594 116.654 C 150.044 117.043,149.838 117.279,150.135 117.178 C 150.896 116.920,150.368 117.388,149.113 118.083 C 147.820 118.799,147.446 118.815,148.514 118.108 C 148.959 117.813,149.194 117.570,149.034 117.569 C 148.642 117.567,144.808 120.033,144.963 120.188 C 145.030 120.256,145.586 119.980,146.197 119.575 C 146.808 119.171,147.369 118.901,147.443 118.975 C 147.688 119.220,145.366 120.583,144.965 120.430 C 144.560 120.274,142.712 121.318,142.706 121.705 C 142.704 121.825,142.855 121.830,143.041 121.715 C 143.226 121.601,143.074 121.884,142.703 122.345 C 142.331 122.806,141.662 123.389,141.216 123.640 C 140.595 123.990,140.689 123.841,141.622 123.002 C 142.291 122.400,142.704 121.904,142.539 121.900 C 142.375 121.896,141.913 122.196,141.512 122.568 C 141.111 122.939,140.668 123.243,140.527 123.243 C 140.386 123.243,140.270 123.395,140.269 123.581 C 140.269 123.767,139.900 124.162,139.450 124.459 C 138.845 124.859,138.668 125.149,138.771 125.572 C 138.879 126.011,138.536 126.496,137.293 127.663 C 136.404 128.498,135.676 129.293,135.676 129.429 C 135.676 129.565,135.311 129.804,134.865 129.960 C 134.419 130.115,134.054 130.370,134.054 130.526 C 134.054 130.683,133.872 130.811,133.649 130.811 C 133.423 130.811,133.243 131.051,133.243 131.351 C 133.243 131.669,133.063 131.892,132.806 131.892 C 132.487 131.892,132.404 132.072,132.497 132.562 C 132.590 133.047,132.488 133.275,132.124 133.391 C 131.847 133.478,131.622 133.728,131.622 133.946 C 131.622 134.163,131.433 134.414,131.201 134.503 C 130.970 134.591,130.801 134.922,130.826 135.237 C 130.907 136.277,130.799 136.613,130.117 137.432 C 129.746 137.878,129.520 138.030,129.615 137.770 C 129.711 137.506,129.659 137.297,129.497 137.297 C 129.337 137.297,129.221 137.706,129.240 138.206 C 129.259 138.705,129.023 139.648,128.717 140.300 C 128.410 140.953,127.912 142.063,127.610 142.768 C 127.205 143.709,126.947 144.007,126.638 143.888 C 126.314 143.764,126.221 143.906,126.235 144.498 C 126.252 145.188,126.281 145.213,126.510 144.730 C 126.843 144.024,126.613 145.308,126.221 146.339 C 125.910 147.156,125.666 147.257,125.868 146.486 C 125.953 146.158,125.876 145.946,125.670 145.946 C 125.427 145.946,125.377 146.272,125.490 147.101 C 125.578 147.743,125.523 148.433,125.366 148.655 C 125.133 148.986,125.110 148.973,125.236 148.581 C 125.334 148.276,125.247 148.108,124.992 148.108 C 124.710 148.108,124.600 148.402,124.614 149.122 C 124.629 149.960,124.676 150.042,124.883 149.595 C 125.067 149.199,125.088 149.306,124.964 149.994 C 124.718 151.362,124.112 153.185,124.081 152.653 C 124.066 152.402,124.173 151.885,124.318 151.504 C 124.531 150.942,124.501 150.811,124.156 150.811 C 123.815 150.811,123.745 151.090,123.800 152.230 C 123.911 154.505,123.843 154.871,123.343 154.679 C 122.950 154.528,122.921 154.729,123.078 156.511 C 123.246 158.423,123.058 159.341,122.537 159.145 C 122.405 159.095,122.260 159.704,122.215 160.498 C 122.169 161.292,122.230 161.897,122.350 161.841 C 122.470 161.785,122.993 162.153,123.514 162.658 C 124.311 163.433,124.343 163.504,123.716 163.109 C 123.070 162.702,122.973 162.695,122.973 163.056 C 122.973 163.533,125.821 165.405,126.546 165.405 C 126.810 165.405,127.027 165.527,127.027 165.676 C 127.027 165.824,127.209 165.946,127.432 165.946 C 127.655 165.946,127.838 166.068,127.838 166.216 C 127.838 166.365,128.010 166.486,128.221 166.486 C 128.431 166.486,128.644 166.586,128.694 166.708 C 128.853 167.100,131.994 169.099,133.041 169.474 C 133.598 169.675,134.054 169.936,134.054 170.054 C 134.054 170.173,134.236 170.270,134.459 170.270 C 134.682 170.270,134.865 170.392,134.865 170.541 C 134.865 170.689,135.037 170.811,135.248 170.811 C 135.458 170.811,135.671 170.914,135.721 171.040 C 135.877 171.437,139.561 173.746,140.338 173.933 C 140.747 174.032,141.081 174.221,141.081 174.354 C 141.081 174.486,141.264 174.595,141.486 174.595 C 141.709 174.595,141.892 174.716,141.892 174.865 C 141.892 175.014,142.074 175.135,142.297 175.135 C 142.520 175.135,142.703 175.257,142.703 175.405 C 142.703 175.554,142.885 175.676,143.108 175.676 C 143.331 175.676,143.514 175.772,143.514 175.889 C 143.514 176.203,146.301 177.838,146.837 177.838 C 147.090 177.838,147.297 177.959,147.297 178.108 C 147.297 178.257,147.480 178.378,147.703 178.378 C 147.926 178.378,148.108 178.500,148.108 178.649 C 148.108 178.797,148.291 178.919,148.514 178.919 C 148.736 178.919,148.919 179.041,148.919 179.189 C 148.919 179.338,149.101 179.459,149.324 179.459 C 149.547 179.459,149.730 179.581,149.730 179.730 C 149.730 179.878,149.902 180.000,150.113 180.000 C 150.323 180.000,150.536 180.098,150.586 180.218 C 150.768 180.661,153.223 182.162,153.765 182.162 C 154.073 182.162,154.324 182.284,154.324 182.432 C 154.324 182.581,154.507 182.703,154.730 182.703 C 154.953 182.703,155.135 182.824,155.135 182.973 C 155.135 183.122,155.318 183.243,155.541 183.243 C 155.764 183.243,155.946 183.365,155.946 183.514 C 155.946 183.662,156.128 183.784,156.351 183.784 C 156.574 183.784,156.757 183.905,156.757 184.054 C 156.757 184.203,156.939 184.324,157.162 184.324 C 157.385 184.324,157.568 184.417,157.568 184.530 C 157.568 184.942,158.793 185.484,159.892 185.558 C 160.513 185.599,161.247 185.751,161.524 185.895 C 163.009 186.668,164.581 187.316,165.541 187.551 C 166.135 187.696,167.291 188.012,168.108 188.252 C 181.711 192.248,197.867 181.859,201.535 166.757 C 202.294 163.631,202.216 156.133,201.401 153.976 C 201.077 153.116,200.807 152.204,200.802 151.949 C 200.793 151.452,198.922 147.570,197.840 145.806 C 196.902 144.276,195.269 142.331,193.024 140.073 C 191.644 138.686,191.081 137.922,191.081 137.438 C 191.081 136.861,190.957 136.757,190.270 136.757 C 189.824 136.757,189.459 136.635,189.459 136.486 C 189.459 136.338,189.277 136.216,189.054 136.216 C 188.831 136.216,188.649 136.095,188.649 135.946 C 188.649 135.797,188.466 135.676,188.243 135.676 C 188.020 135.676,187.838 135.554,187.838 135.405 C 187.838 135.257,187.655 135.135,187.432 135.135 C 187.209 135.135,187.027 135.014,187.027 134.865 C 187.027 134.716,186.825 134.595,186.578 134.595 C 186.332 134.595,185.065 133.865,183.762 132.973 C 182.460 132.081,181.273 131.351,181.125 131.351 C 180.977 131.351,180.810 131.215,180.755 131.048 C 180.699 130.882,180.165 130.718,179.568 130.684 C 178.759 130.639,177.647 130.114,175.200 128.622 C 173.395 127.522,171.509 126.378,171.010 126.081 C 170.083 125.530,168.293 124.184,168.784 124.407 C 168.932 124.475,171.287 125.890,174.016 127.551 C 176.746 129.212,179.028 130.522,179.087 130.462 C 179.237 130.312,176.066 128.108,175.700 128.108 C 175.538 128.108,175.405 127.986,175.405 127.838 C 175.405 127.689,175.223 127.568,175.000 127.568 C 174.777 127.568,174.595 127.456,174.595 127.319 C 174.595 127.182,174.230 126.990,173.784 126.892 C 173.338 126.794,172.973 126.602,172.973 126.465 C 172.973 126.328,172.791 126.216,172.568 126.216 C 172.345 126.216,172.162 126.095,172.162 125.946 C 172.162 125.797,171.990 125.676,171.779 125.676 C 171.569 125.676,171.356 125.569,171.306 125.438 C 171.153 125.036,167.783 122.973,167.278 122.973 C 167.016 122.973,166.755 122.833,166.698 122.662 C 166.641 122.491,166.418 122.411,166.203 122.483 C 165.939 122.572,166.107 122.769,166.714 123.084 C 167.211 123.342,167.544 123.627,167.453 123.718 C 167.170 124.001,165.807 122.789,165.890 122.329 C 165.936 122.075,165.788 121.892,165.536 121.892 C 165.282 121.892,165.182 122.019,165.293 122.198 C 165.561 122.632,162.463 120.945,161.486 120.125 C 161.041 119.751,161.603 119.995,162.737 120.668 C 164.921 121.965,165.135 122.050,165.135 121.622 C 165.135 121.473,164.963 121.351,164.752 121.351 C 164.542 121.351,164.329 121.245,164.279 121.114 C 164.143 120.755,160.868 118.704,159.831 118.329 C 159.329 118.148,158.919 117.902,158.919 117.784 C 158.919 117.665,158.736 117.568,158.514 117.568 C 158.291 117.568,158.108 117.446,158.108 117.297 C 158.108 117.149,157.936 117.027,157.725 117.027 C 157.515 117.027,157.302 116.931,157.252 116.815 C 156.822 115.801,153.286 114.951,152.796 115.743 M157.703 117.641 C 157.851 117.782,157.464 117.642,156.843 117.331 C 156.221 117.019,155.622 116.618,155.511 116.439 C 155.313 116.118,157.175 117.139,157.703 117.641 M136.034 118.052 C 135.614 118.467,134.966 119.016,134.595 119.272 C 130.785 121.892,125.816 128.204,122.958 134.054 C 122.195 135.615,121.395 137.196,121.180 137.568 C 119.930 139.725,119.461 141.195,117.881 147.905 C 117.695 148.697,117.723 148.919,118.011 148.919 C 118.272 148.919,118.378 148.527,118.378 147.568 C 118.378 146.547,118.477 146.216,118.784 146.216 C 119.090 146.216,119.189 145.886,119.189 144.865 C 119.189 143.844,119.288 143.514,119.595 143.514 C 119.887 143.514,120.000 143.213,120.000 142.432 C 120.000 141.652,120.113 141.351,120.405 141.351 C 120.698 141.351,120.811 141.051,120.811 140.270 C 120.811 139.676,120.932 139.189,121.081 139.189 C 121.230 139.189,121.351 138.824,121.351 138.378 C 121.351 137.838,121.486 137.568,121.757 137.568 C 122.027 137.568,122.162 137.297,122.162 136.757 C 122.162 136.216,122.297 135.946,122.568 135.946 C 122.838 135.946,122.973 135.676,122.973 135.135 C 122.973 134.595,123.108 134.324,123.378 134.324 C 123.604 134.324,123.784 134.084,123.784 133.784 C 123.784 133.483,123.964 133.243,124.189 133.243 C 124.459 133.243,124.595 132.973,124.595 132.432 C 124.595 131.892,124.730 131.622,125.000 131.622 C 125.225 131.622,125.405 131.381,125.405 131.081 C 125.405 130.781,125.586 130.541,125.811 130.541 C 126.081 130.541,126.216 130.270,126.216 129.730 C 126.216 129.189,126.351 128.919,126.622 128.919 C 126.847 128.919,127.027 128.679,127.027 128.378 C 127.027 128.078,127.207 127.838,127.432 127.838 C 127.655 127.838,127.838 127.647,127.838 127.413 C 127.838 126.928,128.469 126.216,128.900 126.216 C 129.059 126.216,129.189 125.973,129.189 125.676 C 129.189 125.375,129.369 125.135,129.595 125.135 C 129.820 125.135,130.000 124.895,130.000 124.595 C 130.000 124.294,130.180 124.054,130.405 124.054 C 130.631 124.054,130.811 123.814,130.811 123.514 C 130.811 123.213,130.991 122.973,131.216 122.973 C 131.439 122.973,131.622 122.851,131.622 122.703 C 131.622 122.554,131.804 122.432,132.027 122.432 C 132.252 122.432,132.432 122.192,132.432 121.892 C 132.432 121.592,132.613 121.351,132.838 121.351 C 133.061 121.351,133.243 121.230,133.243 121.081 C 133.243 120.932,133.426 120.811,133.649 120.811 C 133.874 120.811,134.054 120.571,134.054 120.270 C 134.054 119.973,134.184 119.730,134.344 119.730 C 134.503 119.730,134.793 119.578,134.989 119.392 C 135.801 118.621,136.509 118.108,136.760 118.108 C 136.907 118.108,137.027 117.926,137.027 117.703 C 137.027 117.145,136.912 117.185,136.034 118.052 M52.838 123.259 C 51.797 123.988,50.672 124.587,50.338 124.590 C 50.003 124.592,49.730 124.724,49.730 124.883 C 49.730 125.507,52.318 124.288,54.031 122.857 C 55.662 121.495,55.069 121.694,52.838 123.259 M189.499 123.851 C 189.467 125.340,189.537 125.676,189.881 125.676 C 190.153 125.676,190.226 125.556,190.086 125.338 C 189.968 125.152,189.796 124.331,189.705 123.514 L 189.539 122.027 189.499 123.851 M46.004 125.880 C 44.920 126.252,44.087 126.610,44.152 126.674 C 44.280 126.803,48.919 125.406,48.919 125.238 C 48.919 125.008,47.868 125.239,46.004 125.880 M137.635 126.201 C 137.301 126.480,137.027 126.786,137.027 126.881 C 137.027 126.975,136.704 127.352,136.309 127.718 C 135.914 128.084,135.650 128.443,135.722 128.515 C 135.794 128.587,136.461 127.978,137.205 127.161 C 138.573 125.656,138.744 125.276,137.635 126.201 M190.292 128.716 C 190.276 130.496,190.358 131.081,190.624 131.081 C 190.905 131.081,190.932 130.646,190.756 128.986 C 190.445 126.049,190.316 125.974,190.292 128.716 M40.405 127.568 C 40.314 127.716,40.027 127.838,39.768 127.838 C 39.118 127.838,37.027 129.231,37.027 129.663 C 37.027 129.858,36.845 130.087,36.622 130.173 C 36.275 130.305,36.216 131.386,36.216 137.605 C 36.216 143.824,36.275 144.904,36.622 145.037 C 36.845 145.123,37.027 145.457,37.027 145.780 C 37.027 146.299,37.847 147.297,38.273 147.297 C 38.360 147.297,38.815 147.467,39.283 147.673 C 39.752 147.880,40.682 148.178,41.351 148.334 C 42.020 148.491,43.662 148.875,45.000 149.187 C 50.042 150.365,51.572 150.814,52.568 151.407 C 53.014 151.672,53.591 151.890,53.851 151.891 C 54.111 151.891,54.324 152.014,54.324 152.162 C 54.324 152.311,54.507 152.432,54.730 152.432 C 54.953 152.432,55.135 152.554,55.135 152.703 C 55.135 152.851,55.318 152.973,55.541 152.973 C 55.764 152.973,55.946 153.149,55.946 153.365 C 55.946 153.581,56.109 153.854,56.309 153.973 C 56.508 154.092,56.896 154.706,57.171 155.338 C 57.447 155.970,57.770 156.486,57.890 156.486 C 58.010 156.486,58.108 156.843,58.108 157.278 C 58.108 157.713,58.291 158.252,58.514 158.475 C 58.818 158.779,58.919 159.530,58.919 161.486 C 58.919 163.443,58.818 164.194,58.514 164.498 C 58.291 164.721,58.108 165.208,58.108 165.579 C 58.108 165.951,57.956 166.424,57.770 166.632 C 56.884 167.619,56.726 167.880,56.827 168.184 C 56.970 168.613,58.151 166.714,58.807 165.000 C 59.647 162.805,59.539 158.957,58.581 156.976 C 58.172 156.131,57.838 155.330,57.838 155.198 C 57.838 155.065,57.152 154.199,56.314 153.273 C 54.206 150.944,52.715 150.296,45.270 148.476 C 36.174 146.252,36.500 146.668,36.494 137.297 C 36.489 129.404,36.507 129.362,40.480 127.973 C 42.001 127.441,42.157 127.334,41.435 127.317 C 40.961 127.306,40.497 127.419,40.405 127.568 M182.973 133.021 C 183.642 133.435,184.096 133.776,183.982 133.779 C 183.867 133.781,182.973 133.297,181.995 132.703 C 181.016 132.108,180.106 131.622,179.972 131.622 C 179.839 131.622,179.730 131.490,179.730 131.329 C 179.730 131.052,180.130 131.260,182.973 133.021 M190.566 133.345 C 190.281 133.691,190.262 133.884,190.493 134.115 C 190.903 134.524,191.146 134.244,191.035 133.492 C 190.953 132.929,190.918 132.918,190.566 133.345 M130.000 136.396 C 130.000 137.189,130.048 137.178,130.513 136.284 C 130.776 135.780,130.759 135.676,130.415 135.676 C 130.146 135.676,130.000 135.929,130.000 136.396 M79.597 140.743 C 79.787 143.652,79.904 144.442,80.670 147.971 C 82.278 155.380,86.676 164.293,91.845 170.618 C 94.387 173.728,100.114 179.128,100.230 178.524 C 100.283 178.250,100.137 177.920,99.906 177.791 C 99.675 177.661,99.306 177.376,99.087 177.156 C 98.867 176.937,98.557 176.757,98.398 176.757 C 98.238 176.757,98.108 176.514,98.108 176.216 C 98.108 175.916,97.928 175.676,97.703 175.676 C 97.480 175.676,97.297 175.554,97.297 175.405 C 97.297 175.257,97.115 175.135,96.892 175.135 C 96.667 175.135,96.486 174.895,96.486 174.595 C 96.486 174.294,96.306 174.054,96.081 174.054 C 95.858 174.054,95.676 173.932,95.676 173.784 C 95.676 173.635,95.493 173.514,95.270 173.514 C 95.045 173.514,94.865 173.273,94.865 172.973 C 94.865 172.673,94.685 172.432,94.459 172.432 C 94.236 172.432,94.054 172.311,94.054 172.162 C 94.054 172.014,93.872 171.892,93.649 171.892 C 93.426 171.892,93.243 171.701,93.243 171.467 C 93.243 170.982,92.612 170.270,92.181 170.270 C 92.022 170.270,91.892 170.027,91.892 169.730 C 91.892 169.429,91.712 169.189,91.486 169.189 C 91.261 169.189,91.081 168.949,91.081 168.649 C 91.081 168.348,90.901 168.108,90.676 168.108 C 90.450 168.108,90.270 167.868,90.270 167.568 C 90.270 167.267,90.090 167.027,89.865 167.027 C 89.595 167.027,89.459 166.757,89.459 166.216 C 89.459 165.676,89.324 165.405,89.054 165.405 C 88.829 165.405,88.649 165.165,88.649 164.865 C 88.649 164.565,88.468 164.324,88.243 164.324 C 87.973 164.324,87.838 164.054,87.838 163.514 C 87.838 162.973,87.703 162.703,87.432 162.703 C 87.207 162.703,87.027 162.462,87.027 162.162 C 87.027 161.862,86.847 161.622,86.622 161.622 C 86.351 161.622,86.216 161.351,86.216 160.811 C 86.216 160.365,86.104 160.000,85.967 160.000 C 85.831 160.000,85.638 159.635,85.541 159.189 C 85.443 158.743,85.250 158.378,85.114 158.378 C 84.977 158.378,84.865 158.014,84.865 157.568 C 84.865 157.027,84.730 156.757,84.459 156.757 C 84.176 156.757,84.054 156.471,84.054 155.802 C 84.054 155.203,83.903 154.790,83.649 154.692 C 83.418 154.604,83.243 154.201,83.243 153.755 C 83.243 153.240,83.105 152.973,82.838 152.973 C 82.532 152.973,82.432 152.643,82.432 151.622 C 82.432 150.601,82.333 150.270,82.027 150.270 C 81.705 150.270,81.622 149.880,81.622 148.378 C 81.622 146.877,81.538 146.486,81.216 146.486 C 80.886 146.486,80.811 146.040,80.811 144.087 C 80.811 142.284,80.710 141.604,80.405 141.351 C 79.757 140.814,79.913 139.868,80.720 139.438 C 81.282 139.138,81.465 139.128,81.553 139.392 C 81.616 139.578,81.839 139.730,82.050 139.730 C 82.260 139.730,82.432 139.851,82.432 140.000 C 82.432 140.149,82.615 140.270,82.838 140.270 C 83.061 140.270,83.243 140.392,83.243 140.541 C 83.243 140.689,83.426 140.811,83.649 140.811 C 83.872 140.811,84.054 140.932,84.054 141.081 C 84.054 141.230,84.236 141.351,84.459 141.351 C 84.682 141.351,84.865 141.473,84.865 141.622 C 84.865 141.770,85.047 141.892,85.270 141.892 C 85.493 141.892,85.676 142.014,85.676 142.162 C 85.676 142.311,85.863 142.432,86.091 142.432 C 86.320 142.432,87.592 143.162,88.919 144.054 C 90.245 144.946,91.457 145.676,91.611 145.676 C 91.766 145.676,91.892 145.797,91.892 145.946 C 91.892 146.095,92.032 146.216,92.203 146.216 C 92.375 146.216,93.647 146.943,95.031 147.830 C 96.416 148.718,97.856 149.522,98.233 149.616 C 98.610 149.711,98.919 149.897,98.919 150.029 C 98.919 150.162,99.091 150.270,99.302 150.270 C 99.512 150.270,99.725 150.377,99.775 150.507 C 99.908 150.858,105.161 154.226,105.946 154.463 C 106.318 154.575,106.682 154.756,106.757 154.865 C 107.133 155.415,113.640 159.459,114.144 159.456 C 115.573 159.447,115.947 159.171,115.925 158.144 L 115.905 157.162 115.558 158.108 C 115.088 159.390,113.735 159.406,112.301 158.147 C 111.770 157.682,110.823 157.042,110.195 156.726 C 109.568 156.410,108.568 155.763,107.973 155.288 C 106.882 154.417,79.909 137.838,79.583 137.838 C 79.486 137.838,79.493 139.145,79.597 140.743 M127.857 140.743 C 127.874 141.402,127.902 141.425,128.108 140.946 C 128.425 140.208,128.425 140.000,128.108 140.000 C 127.959 140.000,127.846 140.334,127.857 140.743 M127.048 142.500 C 127.060 142.983,127.137 143.196,127.220 142.973 C 127.303 142.750,127.480 142.355,127.614 142.095 C 127.794 141.744,127.750 141.622,127.442 141.622 C 127.150 141.622,127.033 141.881,127.048 142.500 M117.081 150.627 C 116.653 151.811,116.672 152.162,117.162 152.162 C 117.462 152.162,117.568 151.847,117.568 150.946 C 117.568 149.492,117.506 149.452,117.081 150.627 M116.284 153.896 C 115.939 155.527,116.005 155.995,116.506 155.494 C 116.661 155.339,116.750 154.556,116.705 153.755 L 116.622 152.297 116.284 153.896 M216.580 165.428 C 216.797 165.738,218.559 167.504,220.496 169.353 C 225.994 174.601,225.968 174.494,223.033 179.740 C 221.996 181.593,220.691 184.020,220.131 185.135 C 218.918 187.553,218.069 188.530,216.825 188.941 C 215.855 189.261,213.093 189.062,212.841 188.653 C 212.763 188.528,212.184 188.342,211.553 188.240 C 210.922 188.138,208.785 187.632,206.805 187.116 C 199.091 185.105,193.481 187.148,190.718 192.973 C 189.015 196.565,189.372 199.575,192.720 209.850 C 193.968 213.680,192.975 215.798,189.004 217.778 C 188.140 218.209,186.713 219.068,185.834 219.686 C 184.954 220.305,184.148 220.811,184.042 220.811 C 183.936 220.811,183.142 221.236,182.278 221.757 C 179.292 223.555,178.941 223.390,172.419 217.104 C 162.394 207.442,152.215 209.399,149.307 221.546 C 148.436 225.187,147.873 227.627,147.548 229.166 C 146.697 233.209,145.928 233.531,136.977 233.597 L 129.958 233.649 129.303 232.890 C 128.659 232.144,128.649 232.142,128.652 232.755 C 128.660 234.248,129.983 234.595,135.672 234.595 C 138.918 234.595,140.811 234.495,140.811 234.324 C 140.811 234.164,141.802 234.054,143.243 234.054 C 144.685 234.054,145.676 233.944,145.676 233.784 C 145.676 233.635,145.858 233.514,146.081 233.514 C 146.304 233.514,146.486 233.392,146.486 233.243 C 146.486 233.095,146.669 232.973,146.892 232.973 C 147.115 232.973,147.297 232.743,147.297 232.461 C 147.297 232.180,147.480 231.880,147.703 231.794 C 147.954 231.698,148.108 231.286,148.108 230.713 C 148.108 230.140,148.262 229.728,148.514 229.632 C 148.808 229.519,148.921 229.048,148.928 227.914 C 148.933 226.971,149.093 226.143,149.333 225.827 C 149.552 225.536,149.730 224.729,149.730 224.018 C 149.730 223.312,149.851 222.659,150.000 222.568 C 150.149 222.476,150.270 221.739,150.270 220.930 C 150.270 219.803,150.365 219.459,150.676 219.459 C 150.946 219.459,151.081 219.189,151.081 218.649 C 151.081 218.108,151.216 217.838,151.486 217.838 C 151.757 217.838,151.892 217.568,151.892 217.027 C 151.892 216.581,152.012 216.216,152.159 216.216 C 152.570 216.216,153.514 215.327,153.514 214.940 C 153.514 214.750,153.686 214.595,153.896 214.595 C 154.107 214.595,154.320 214.496,154.369 214.376 C 154.552 213.933,157.007 212.432,157.549 212.432 C 157.856 212.432,158.108 212.311,158.108 212.162 C 158.108 211.604,163.824 211.836,164.804 212.433 C 165.291 212.730,165.929 212.973,166.223 212.973 C 166.516 212.973,166.757 213.095,166.757 213.243 C 166.757 213.392,166.939 213.514,167.162 213.514 C 167.385 213.514,167.568 213.635,167.568 213.784 C 167.568 213.932,167.750 214.054,167.973 214.054 C 168.196 214.054,168.378 214.176,168.378 214.324 C 168.378 214.473,168.561 214.595,168.784 214.595 C 169.007 214.595,169.189 214.716,169.189 214.865 C 169.189 215.014,169.372 215.135,169.595 215.135 C 169.820 215.135,170.000 215.375,170.000 215.676 C 170.000 215.976,170.180 216.216,170.405 216.216 C 170.628 216.216,170.811 216.338,170.811 216.486 C 170.811 216.635,170.941 216.757,171.100 216.757 C 171.445 216.757,172.162 217.433,172.162 217.758 C 172.162 218.056,173.170 218.919,173.517 218.919 C 173.664 218.919,173.784 219.041,173.784 219.189 C 173.784 219.338,173.966 219.459,174.189 219.459 C 174.412 219.459,174.595 219.615,174.595 219.805 C 174.595 220.192,175.538 221.081,175.949 221.081 C 176.096 221.081,176.216 221.203,176.216 221.351 C 176.216 221.500,176.399 221.622,176.622 221.622 C 176.847 221.622,177.027 221.862,177.027 222.162 C 177.027 222.462,177.207 222.703,177.432 222.703 C 177.655 222.703,177.838 222.824,177.838 222.973 C 177.838 223.132,178.784 223.243,180.135 223.243 C 181.486 223.243,182.432 223.132,182.432 222.973 C 182.432 222.824,182.615 222.703,182.838 222.703 C 183.061 222.703,183.243 222.581,183.243 222.432 C 183.243 222.284,183.426 222.162,183.649 222.162 C 183.872 222.162,184.054 222.041,184.054 221.892 C 184.054 221.743,184.174 221.622,184.321 221.622 C 184.572 221.622,185.280 221.108,186.092 220.338 C 186.288 220.152,186.578 220.000,186.737 220.000 C 186.897 220.000,187.027 219.878,187.027 219.730 C 187.027 219.581,187.392 219.459,187.838 219.459 C 188.284 219.459,188.649 219.338,188.649 219.189 C 188.649 219.041,188.831 218.919,189.054 218.919 C 189.277 218.919,189.459 218.797,189.459 218.649 C 189.459 218.500,189.642 218.378,189.865 218.378 C 190.088 218.378,190.270 218.257,190.270 218.108 C 190.270 217.959,190.453 217.838,190.676 217.838 C 190.899 217.838,191.081 217.716,191.081 217.568 C 191.081 217.419,191.211 217.297,191.371 217.297 C 191.530 217.297,191.820 217.145,192.016 216.959 C 192.828 216.189,193.536 215.676,193.787 215.676 C 193.945 215.676,194.054 214.574,194.054 212.973 C 194.054 210.751,193.982 210.270,193.649 210.270 C 193.342 210.270,193.243 209.940,193.243 208.919 C 193.243 208.176,193.122 207.568,192.973 207.568 C 192.824 207.568,192.703 207.165,192.703 206.673 C 192.703 206.181,192.524 205.543,192.306 205.254 C 192.088 204.966,191.905 204.274,191.900 203.716 C 191.894 202.999,191.773 202.703,191.486 202.703 C 191.143 202.703,191.081 202.045,191.081 198.407 C 191.081 194.838,191.150 194.086,191.486 193.956 C 191.709 193.871,191.892 193.484,191.892 193.097 C 191.892 192.710,192.044 192.224,192.230 192.017 C 193.032 191.123,193.243 190.817,193.243 190.552 C 193.243 190.397,193.426 190.270,193.649 190.270 C 193.872 190.270,194.054 190.149,194.054 190.000 C 194.054 189.851,194.236 189.730,194.459 189.730 C 194.682 189.730,194.865 189.608,194.865 189.459 C 194.865 189.311,195.047 189.189,195.270 189.189 C 195.493 189.189,195.676 189.068,195.676 188.919 C 195.676 188.770,195.858 188.649,196.081 188.649 C 196.304 188.649,196.486 188.527,196.486 188.378 C 196.486 188.230,196.669 188.108,196.892 188.108 C 197.115 188.108,197.297 187.986,197.297 187.838 C 197.297 187.689,197.594 187.568,197.957 187.568 C 198.320 187.568,198.692 187.446,198.784 187.297 C 198.879 187.143,200.273 187.027,202.043 187.027 C 203.924 187.027,205.135 187.133,205.135 187.297 C 205.135 187.446,205.682 187.568,206.351 187.568 C 207.020 187.568,207.568 187.689,207.568 187.838 C 207.568 187.986,207.925 188.108,208.362 188.108 C 208.800 188.108,209.232 188.230,209.324 188.378 C 209.416 188.527,209.910 188.649,210.421 188.649 C 210.933 188.649,211.351 188.770,211.351 188.919 C 211.351 189.068,211.716 189.189,212.162 189.189 C 212.608 189.189,212.973 189.311,212.973 189.459 C 212.973 189.620,213.967 189.730,215.415 189.730 C 217.902 189.730,219.189 189.314,219.189 188.511 C 219.189 188.321,219.372 188.096,219.595 188.010 C 219.818 187.925,220.000 187.669,220.000 187.441 C 220.000 187.213,220.113 187.027,220.250 187.027 C 220.574 187.027,221.351 185.471,221.351 184.823 C 221.351 184.549,221.534 184.324,221.757 184.324 C 222.027 184.324,222.162 184.054,222.162 183.514 C 222.162 182.973,222.297 182.703,222.568 182.703 C 222.838 182.703,222.973 182.432,222.973 181.892 C 222.973 181.351,223.108 181.081,223.378 181.081 C 223.601 181.081,223.784 180.851,223.784 180.569 C 223.784 180.288,223.966 179.988,224.189 179.902 C 224.412 179.817,224.595 179.452,224.595 179.091 C 224.595 178.731,224.777 178.366,225.000 178.281 C 225.223 178.195,225.405 177.809,225.405 177.422 C 225.405 177.035,225.588 176.536,225.811 176.313 C 226.034 176.090,226.216 175.612,226.216 175.251 C 226.216 174.848,226.060 174.595,225.811 174.595 C 225.541 174.595,225.405 174.324,225.405 173.784 C 225.405 173.243,225.270 172.973,225.000 172.973 C 224.775 172.973,224.595 172.733,224.595 172.432 C 224.595 172.132,224.414 171.892,224.189 171.892 C 223.966 171.892,223.784 171.770,223.784 171.622 C 223.784 171.473,223.601 171.351,223.378 171.351 C 223.153 171.351,222.973 171.111,222.973 170.811 C 222.973 170.511,222.793 170.270,222.568 170.270 C 222.345 170.270,222.162 170.149,222.162 170.000 C 222.162 169.851,222.032 169.730,221.873 169.730 C 221.528 169.730,220.811 169.053,220.811 168.728 C 220.811 168.431,219.803 167.568,219.456 167.568 C 219.309 167.568,219.189 167.446,219.189 167.297 C 219.189 167.149,219.007 167.027,218.784 167.027 C 218.559 167.027,218.378 166.787,218.378 166.486 C 218.378 166.186,218.198 165.946,217.973 165.946 C 217.750 165.946,217.568 165.824,217.568 165.676 C 217.568 165.527,217.385 165.405,217.162 165.405 C 216.939 165.405,216.757 165.284,216.757 165.135 C 216.757 164.986,216.628 164.865,216.471 164.865 C 216.305 164.865,216.351 165.101,216.580 165.428 M55.946 169.087 C 55.946 169.446,56.019 169.465,56.351 169.189 C 56.574 169.004,56.757 168.807,56.757 168.751 C 56.757 168.695,56.574 168.649,56.351 168.649 C 56.128 168.649,55.946 168.846,55.946 169.087 M55.135 170.000 C 55.135 170.149,54.953 170.270,54.730 170.270 C 54.507 170.270,54.324 170.474,54.324 170.723 C 54.324 171.097,54.441 171.066,55.000 170.541 C 55.748 169.838,55.802 169.730,55.405 169.730 C 55.257 169.730,55.135 169.851,55.135 170.000 M53.514 171.622 C 53.514 171.770,53.331 171.892,53.108 171.892 C 52.885 171.892,52.703 172.096,52.703 172.344 C 52.703 172.719,52.819 172.688,53.378 172.162 C 54.126 171.460,54.180 171.351,53.784 171.351 C 53.635 171.351,53.514 171.473,53.514 171.622 M51.554 173.485 C 51.294 173.748,51.081 174.106,51.081 174.279 C 51.081 174.453,50.951 174.595,50.792 174.595 C 50.410 174.595,49.730 175.285,49.730 175.672 C 49.730 176.127,50.098 175.821,51.352 174.324 C 52.425 173.042,52.565 172.460,51.554 173.485 M47.335 180.068 C 47.305 181.526,47.379 181.892,47.703 181.892 C 47.955 181.892,48.108 182.147,48.108 182.568 C 48.108 182.988,48.261 183.243,48.514 183.243 C 48.784 183.243,48.919 183.514,48.919 184.054 C 48.919 184.595,49.054 184.865,49.324 184.865 C 49.550 184.865,49.730 185.105,49.730 185.405 C 49.730 185.703,49.851 185.946,50.000 185.946 C 50.149 185.946,50.270 186.132,50.270 186.360 C 50.270 186.587,50.453 186.844,50.676 186.929 C 50.899 187.015,51.081 187.258,51.081 187.470 C 51.081 187.682,51.264 187.925,51.486 188.010 C 51.709 188.096,51.892 188.457,51.892 188.813 C 51.892 189.168,52.017 189.459,52.169 189.459 C 52.321 189.459,52.561 189.764,52.703 190.135 C 52.844 190.507,53.084 190.811,53.237 190.811 C 53.389 190.811,53.514 191.088,53.514 191.426 C 53.514 192.030,54.340 192.973,54.868 192.973 C 55.015 192.973,55.135 193.095,55.135 193.243 C 55.135 193.392,55.318 193.514,55.541 193.514 C 55.764 193.514,55.946 193.635,55.946 193.784 C 55.946 193.941,56.842 194.054,58.092 194.054 C 59.273 194.054,60.314 193.932,60.405 193.784 C 60.497 193.635,60.810 193.514,61.101 193.514 C 61.391 193.514,61.871 193.392,62.166 193.243 C 62.461 193.095,62.944 192.851,63.240 192.703 C 63.535 192.554,64.082 192.432,64.456 192.432 C 64.829 192.432,65.135 192.311,65.135 192.162 C 65.135 192.014,65.614 191.892,66.200 191.892 C 66.786 191.892,67.341 191.770,67.432 191.622 C 67.524 191.473,67.889 191.351,68.243 191.351 C 68.597 191.351,68.962 191.230,69.054 191.081 C 69.146 190.932,69.700 190.811,70.286 190.811 C 70.872 190.811,71.351 190.689,71.351 190.541 C 71.351 190.390,72.072 190.270,72.973 190.270 C 73.874 190.270,74.595 190.390,74.595 190.541 C 74.595 190.689,74.959 190.811,75.405 190.811 C 75.851 190.811,76.216 190.932,76.216 191.081 C 76.216 191.230,76.581 191.351,77.027 191.351 C 77.473 191.351,77.838 191.473,77.838 191.622 C 77.838 191.770,77.958 191.892,78.105 191.892 C 78.356 191.892,79.064 192.405,79.876 193.176 C 80.071 193.361,80.362 193.514,80.521 193.514 C 80.681 193.514,80.811 193.757,80.811 194.054 C 80.811 194.354,80.991 194.595,81.216 194.595 C 81.470 194.595,81.622 194.851,81.622 195.279 C 81.622 195.655,81.804 196.033,82.027 196.118 C 82.250 196.204,82.432 196.559,82.432 196.907 C 82.432 197.256,82.606 197.638,82.819 197.757 C 83.038 197.880,83.243 198.490,83.292 199.168 C 83.339 199.826,83.509 200.406,83.669 200.459 C 84.973 200.887,82.295 194.471,80.467 192.787 C 77.799 190.330,72.618 189.003,69.614 190.007 C 67.474 190.723,57.385 193.514,56.939 193.514 C 55.884 193.514,54.482 192.228,53.277 190.157 C 52.924 189.550,51.528 187.230,50.174 185.000 C 48.242 181.819,47.676 180.655,47.543 179.595 C 47.375 178.252,47.373 178.255,47.335 180.068 M100.807 179.320 C 102.926 181.874,118.919 189.847,118.919 188.350 C 118.919 188.217,118.561 188.108,118.124 188.108 C 117.687 188.108,117.254 187.986,117.162 187.838 C 117.070 187.689,116.759 187.568,116.471 187.568 C 116.182 187.568,115.946 187.446,115.946 187.297 C 115.946 187.149,115.637 187.027,115.259 187.027 C 114.881 187.027,114.311 186.784,113.992 186.486 C 113.673 186.189,113.130 185.946,112.787 185.946 C 112.443 185.946,112.162 185.824,112.162 185.676 C 112.162 185.527,111.980 185.405,111.757 185.405 C 111.534 185.405,111.351 185.284,111.351 185.135 C 111.351 184.986,110.986 184.865,110.541 184.865 C 110.095 184.865,109.730 184.743,109.730 184.595 C 109.730 184.446,109.547 184.324,109.324 184.324 C 109.101 184.324,108.919 184.203,108.919 184.054 C 108.919 183.905,108.736 183.784,108.514 183.784 C 108.291 183.784,108.108 183.662,108.108 183.514 C 108.108 183.365,107.804 183.243,107.432 183.243 C 107.061 183.243,106.757 183.122,106.757 182.973 C 106.757 182.824,106.574 182.703,106.351 182.703 C 106.128 182.703,105.946 182.581,105.946 182.432 C 105.946 182.284,105.764 182.162,105.541 182.162 C 105.318 182.162,105.135 182.041,105.135 181.892 C 105.135 181.743,104.953 181.622,104.730 181.622 C 104.507 181.622,104.324 181.500,104.324 181.351 C 104.324 181.203,104.142 181.081,103.919 181.081 C 103.696 181.081,103.514 180.959,103.514 180.811 C 103.514 180.662,103.331 180.541,103.108 180.541 C 102.885 180.541,102.703 180.419,102.703 180.270 C 102.703 180.122,102.520 180.000,102.297 180.000 C 102.074 180.000,101.892 179.878,101.892 179.730 C 101.892 179.581,101.709 179.459,101.486 179.459 C 101.264 179.459,101.081 179.338,101.081 179.189 C 101.081 179.041,100.945 178.919,100.778 178.919 C 100.567 178.919,100.576 179.041,100.807 179.320 M119.189 188.753 C 119.189 188.811,119.548 188.910,119.986 188.974 C 120.424 189.039,120.721 188.992,120.645 188.870 C 120.512 188.653,119.189 188.547,119.189 188.753 M121.622 189.459 C 122.588 189.769,122.973 189.769,122.973 189.459 C 122.973 189.311,122.517 189.201,121.959 189.216 C 121.055 189.240,121.019 189.266,121.622 189.459 M123.266 189.829 C 123.584 190.110,125.405 190.266,125.405 190.012 C 125.405 189.857,124.899 189.730,124.279 189.730 C 123.660 189.730,123.204 189.774,123.266 189.829 M126.239 190.369 C 126.550 190.641,129.189 190.803,129.189 190.550 C 129.189 190.390,128.532 190.270,127.658 190.270 C 126.815 190.270,126.177 190.315,126.239 190.369 M142.368 190.461 C 142.704 190.526,143.191 190.524,143.449 190.456 C 143.707 190.388,143.432 190.335,142.838 190.338 C 142.243 190.341,142.032 190.397,142.368 190.461 M136.959 191.006 C 137.443 191.066,138.233 191.066,138.716 191.006 C 139.199 190.946,138.804 190.897,137.838 190.897 C 136.872 190.897,136.476 190.946,136.959 191.006 M83.528 203.631 C 83.351 203.844,83.245 204.422,83.292 204.915 C 83.375 205.780,83.389 205.767,83.679 204.527 C 84.008 203.118,83.999 203.064,83.528 203.631 M82.451 207.365 C 82.467 208.101,82.508 208.156,82.703 207.703 C 83.024 206.956,83.024 206.486,82.703 206.486 C 82.554 206.486,82.441 206.882,82.451 207.365 M81.653 211.014 C 81.685 212.825,81.687 212.829,81.898 211.578 C 82.015 210.885,82.191 210.064,82.290 209.754 C 82.419 209.345,82.352 209.189,82.045 209.189 C 81.699 209.189,81.627 209.524,81.653 211.014 M111.081 212.621 C 110.412 212.854,109.318 213.230,108.649 213.456 C 107.430 213.868,104.026 217.026,100.720 220.811 C 96.697 225.417,95.405 225.856,91.892 223.808 C 90.926 223.244,89.345 222.379,88.378 221.886 C 81.161 218.198,80.484 217.378,81.519 213.581 C 81.641 213.133,81.570 212.973,81.248 212.973 C 80.519 212.973,80.613 217.819,81.354 218.453 C 81.653 218.709,82.018 218.919,82.165 218.919 C 82.312 218.919,82.432 219.041,82.432 219.189 C 82.432 219.338,82.615 219.459,82.838 219.459 C 83.061 219.459,83.243 219.581,83.243 219.730 C 83.243 219.878,83.426 220.000,83.649 220.000 C 83.872 220.000,84.054 220.122,84.054 220.270 C 84.054 220.419,84.236 220.541,84.459 220.541 C 84.682 220.541,84.865 220.662,84.865 220.811 C 84.865 220.959,85.146 221.081,85.490 221.081 C 85.833 221.081,86.375 221.324,86.694 221.622 C 87.014 221.919,87.401 222.162,87.556 222.162 C 87.711 222.162,87.838 222.284,87.838 222.432 C 87.838 222.581,88.074 222.703,88.362 222.703 C 88.651 222.703,88.962 222.824,89.054 222.973 C 89.146 223.122,89.457 223.243,89.746 223.243 C 90.034 223.243,90.270 223.365,90.270 223.514 C 90.270 223.662,90.453 223.784,90.676 223.784 C 90.899 223.784,91.081 223.905,91.081 224.054 C 91.081 224.203,91.264 224.324,91.486 224.324 C 91.709 224.324,91.892 224.446,91.892 224.595 C 91.892 224.743,92.074 224.865,92.297 224.865 C 92.520 224.865,92.703 224.986,92.703 225.135 C 92.703 225.284,93.000 225.405,93.362 225.405 C 93.725 225.405,94.097 225.527,94.189 225.676 C 94.281 225.824,94.836 225.946,95.421 225.946 C 96.007 225.946,96.486 225.824,96.486 225.676 C 96.486 225.527,96.744 225.405,97.059 225.405 C 97.374 225.405,98.118 224.919,98.712 224.324 C 99.307 223.730,99.901 223.243,100.032 223.243 C 100.163 223.243,100.270 223.000,100.270 222.703 C 100.270 222.402,100.450 222.162,100.676 222.162 C 100.899 222.162,101.081 222.041,101.081 221.892 C 101.081 221.743,101.264 221.622,101.486 221.622 C 101.712 221.622,101.892 221.381,101.892 221.081 C 101.892 220.784,102.012 220.541,102.159 220.541 C 102.570 220.541,103.514 219.652,103.514 219.264 C 103.514 219.074,103.696 218.919,103.919 218.919 C 104.142 218.919,104.324 218.818,104.324 218.694 C 104.324 218.570,104.686 218.114,105.128 217.680 C 105.569 217.247,105.934 216.760,105.938 216.600 C 105.943 216.439,106.250 216.145,106.622 215.946 C 106.993 215.747,107.297 215.483,107.297 215.360 C 107.297 215.236,107.480 215.135,107.703 215.135 C 107.926 215.135,108.108 215.014,108.108 214.865 C 108.108 214.716,108.291 214.595,108.514 214.595 C 108.736 214.595,108.919 214.473,108.919 214.324 C 108.919 214.176,109.284 214.054,109.730 214.054 C 110.176 214.054,110.541 213.932,110.541 213.784 C 110.541 213.635,110.837 213.514,111.200 213.514 C 111.563 213.514,111.935 213.392,112.027 213.243 C 112.120 213.092,113.381 212.973,114.881 212.973 C 116.492 212.973,117.568 213.081,117.568 213.243 C 117.568 213.392,117.750 213.514,117.973 213.514 C 118.196 213.514,118.378 213.608,118.378 213.723 C 118.378 213.839,118.925 214.173,119.592 214.466 C 120.260 214.760,120.807 215.152,120.808 215.338 C 120.810 215.524,120.993 215.676,121.216 215.676 C 121.439 215.676,121.622 215.777,121.622 215.900 C 121.622 216.024,121.926 216.288,122.297 216.486 C 122.669 216.685,122.973 217.056,122.973 217.310 C 122.973 217.564,123.155 217.923,123.378 218.108 C 123.601 218.293,123.784 218.738,123.784 219.096 C 123.784 219.454,123.966 219.817,124.189 219.902 C 124.420 219.991,124.595 220.394,124.595 220.840 C 124.595 221.355,124.733 221.622,125.000 221.622 C 125.315 221.622,125.405 221.982,125.405 223.243 C 125.405 224.505,125.495 224.865,125.811 224.865 C 126.093 224.865,126.216 225.149,126.216 225.797 C 126.216 226.325,126.384 226.824,126.603 226.946 C 126.822 227.069,127.027 227.680,127.076 228.358 C 127.123 229.015,127.299 229.598,127.467 229.653 C 127.814 229.767,127.329 227.366,126.636 225.541 C 126.411 224.946,125.978 223.489,125.676 222.303 C 123.777 214.859,117.187 210.487,111.081 212.621 M127.860 230.862 C 127.848 231.262,127.968 231.670,128.126 231.768 C 128.590 232.054,128.623 231.812,128.240 230.946 L 127.882 230.135 127.860 230.862 " stroke="none" fill="#fbfbfb" fill-rule="evenodd"></path><path id="path1" d="M130.676 36.751 C 127.851 36.851,125.528 36.955,125.513 36.981 C 125.498 37.006,125.110 37.386,124.652 37.824 C 123.396 39.024,121.037 46.433,121.514 47.677 C 121.605 47.914,121.565 48.108,121.425 48.108 C 121.171 48.108,121.108 48.331,121.002 49.595 C 120.971 49.966,120.841 50.270,120.712 50.270 C 120.583 50.270,120.536 50.575,120.607 50.947 C 120.688 51.372,120.549 51.841,120.233 52.205 C 119.760 52.750,119.622 53.104,119.698 53.581 C 119.715 53.693,119.608 53.784,119.459 53.784 C 119.311 53.784,119.220 53.875,119.257 53.986 C 119.294 54.098,119.081 54.466,118.784 54.804 C 115.805 58.191,112.486 59.650,108.393 59.371 C 105.659 59.185,105.520 59.157,104.426 58.577 C 103.962 58.331,103.506 58.206,103.413 58.299 C 103.319 58.392,103.243 58.327,103.243 58.153 C 103.243 57.980,103.140 57.868,103.013 57.905 C 102.886 57.943,101.579 56.797,100.107 55.359 C 94.403 49.786,91.716 47.581,91.096 47.964 C 90.965 48.045,90.811 47.974,90.755 47.806 C 90.616 47.387,89.130 47.736,88.482 48.339 C 88.202 48.600,87.912 48.818,87.838 48.823 C 87.687 48.832,82.977 51.603,80.270 53.274 C 76.344 55.698,76.295 56.065,78.797 64.324 C 79.135 65.439,79.663 67.187,79.972 68.208 C 81.474 73.184,80.685 77.084,77.494 80.458 C 73.408 84.779,69.523 85.130,59.241 82.110 C 54.390 80.685,52.391 81.082,50.985 83.747 C 50.621 84.436,49.217 87.057,47.865 89.571 C 44.697 95.459,44.696 96.116,47.858 98.962 C 54.298 104.758,56.946 107.851,57.713 110.471 C 58.315 112.525,58.362 117.568,57.779 117.568 C 57.663 117.568,57.590 117.659,57.617 117.770 C 58.057 119.572,53.044 124.375,49.865 125.198 C 46.983 125.944,41.766 127.611,41.419 127.896 C 41.233 128.049,41.081 128.074,41.081 127.952 C 41.081 127.830,40.945 127.866,40.778 128.033 C 40.611 128.200,40.307 128.272,40.102 128.193 C 39.897 128.115,39.730 128.185,39.730 128.349 C 39.730 128.514,39.639 128.629,39.527 128.606 C 38.880 128.469,36.911 130.124,36.658 131.017 C 36.585 131.275,36.608 134.495,36.709 138.171 L 36.892 144.856 37.838 145.797 C 38.799 146.754,43.661 148.383,44.326 147.972 C 44.474 147.881,44.595 147.912,44.595 148.043 C 44.595 148.352,48.548 149.283,48.911 149.059 C 49.064 148.964,49.189 149.009,49.189 149.158 C 49.189 149.307,49.432 149.382,49.730 149.324 C 50.027 149.267,50.270 149.335,50.270 149.475 C 50.270 149.615,50.438 149.730,50.642 149.730 C 52.610 149.730,58.108 154.012,58.108 155.544 C 58.108 155.633,58.382 156.276,58.716 156.974 C 59.222 158.029,59.324 158.699,59.324 160.946 C 59.324 165.242,58.755 166.601,55.527 170.000 C 50.616 175.173,50.009 175.866,50.203 176.080 C 50.314 176.202,50.253 176.215,50.067 176.108 C 49.851 175.984,49.636 176.158,49.472 176.589 C 49.331 176.960,48.976 177.393,48.683 177.549 C 47.485 178.190,47.321 180.695,48.402 181.855 C 48.698 182.173,48.844 182.436,48.727 182.441 C 48.609 182.446,48.750 182.628,49.038 182.846 C 49.327 183.065,49.476 183.243,49.370 183.243 C 49.148 183.243,49.993 184.639,50.380 184.911 C 50.522 185.010,50.663 185.264,50.694 185.475 C 50.725 185.685,51.341 186.820,52.064 187.997 C 52.787 189.174,53.556 190.481,53.774 190.902 C 54.837 192.957,58.555 194.166,59.435 192.742 C 59.554 192.550,59.844 192.493,60.134 192.604 C 60.505 192.747,60.573 192.704,60.405 192.432 C 60.242 192.168,60.303 192.117,60.631 192.243 C 61.006 192.387,63.642 191.754,65.135 191.161 C 65.358 191.072,65.784 190.953,66.081 190.897 C 66.378 190.840,67.411 190.564,68.378 190.284 C 76.508 187.926,84.042 193.016,84.128 200.925 C 84.151 202.970,84.132 203.087,83.282 206.367 C 80.561 216.857,80.638 217.560,84.771 219.823 C 94.646 225.230,94.233 225.044,95.751 224.759 C 96.824 224.557,99.149 222.706,99.798 221.537 C 100.058 221.068,101.335 219.671,102.635 218.433 C 103.936 217.195,104.818 216.267,104.595 216.370 C 104.372 216.474,104.615 216.150,105.135 215.651 C 105.655 215.153,106.142 214.736,106.216 214.724 C 106.291 214.713,106.941 214.322,107.662 213.855 C 108.862 213.078,109.844 212.755,112.819 212.159 C 114.885 211.746,120.198 213.118,120.892 214.244 C 121.011 214.437,121.284 214.595,121.500 214.595 C 121.716 214.595,121.892 214.709,121.892 214.848 C 121.892 214.988,122.348 215.630,122.905 216.274 C 123.463 216.919,124.150 217.960,124.433 218.588 C 124.716 219.216,125.057 219.730,125.192 219.730 C 125.327 219.730,125.359 219.857,125.263 220.012 C 125.167 220.167,125.236 220.471,125.415 220.688 C 125.595 220.904,125.678 221.081,125.601 221.081 C 125.291 221.081,128.182 230.686,129.005 232.395 C 129.369 233.149,130.231 233.534,131.120 233.337 C 131.611 233.229,131.666 233.260,131.361 233.474 C 130.961 233.755,140.391 233.657,143.437 233.349 C 144.985 233.193,146.398 232.103,146.977 230.618 C 147.456 229.389,148.662 224.023,148.513 223.782 C 148.437 223.660,148.469 223.519,148.584 223.469 C 148.789 223.380,150.093 218.292,150.001 217.941 C 149.975 217.843,150.076 217.688,150.226 217.595 C 150.375 217.503,150.537 217.264,150.586 217.065 C 151.012 215.335,154.916 212.141,157.571 211.350 C 162.805 209.792,166.226 211.222,173.458 217.992 C 179.464 223.613,179.320 223.574,183.784 220.793 C 185.047 220.006,186.993 218.836,188.108 218.194 C 193.452 215.115,194.179 213.619,192.418 209.324 C 192.235 208.878,192.063 208.331,192.035 208.108 C 192.008 207.885,191.451 205.939,190.799 203.784 C 188.495 196.173,189.671 191.611,194.832 188.140 C 197.335 186.457,203.347 185.233,204.065 186.260 C 204.145 186.375,204.631 186.503,205.146 186.545 C 205.660 186.587,206.142 186.691,206.216 186.777 C 206.490 187.091,214.615 188.919,215.734 188.918 C 217.708 188.916,218.318 188.311,220.523 184.163 C 221.622 182.096,223.049 179.467,223.693 178.320 C 224.981 176.028,225.188 174.658,224.419 173.506 C 223.662 172.371,222.087 170.826,221.841 170.977 C 221.713 171.056,221.642 171.004,221.682 170.860 C 221.723 170.717,221.244 170.191,220.617 169.692 C 219.991 169.192,218.752 167.967,217.866 166.968 C 216.979 165.969,215.824 164.774,215.299 164.314 C 214.775 163.853,214.073 163.028,213.741 162.481 C 213.409 161.934,213.069 161.426,212.987 161.351 C 212.810 161.191,212.789 161.105,212.155 157.976 C 211.876 156.600,211.768 155.482,211.906 155.397 C 212.039 155.314,212.182 154.675,212.223 153.976 C 212.264 153.277,212.385 152.705,212.492 152.704 C 212.598 152.703,212.616 152.520,212.530 152.297 C 212.445 152.074,212.516 151.892,212.690 151.892 C 212.863 151.892,212.930 151.770,212.838 151.622 C 212.746 151.473,212.791 151.351,212.939 151.351 C 213.173 151.351,213.597 150.494,213.635 149.944 C 213.643 149.839,213.892 149.556,214.189 149.316 C 214.486 149.076,214.547 148.967,214.324 149.075 C 214.101 149.182,214.338 148.826,214.850 148.284 C 215.363 147.741,215.933 147.297,216.119 147.297 C 216.304 147.297,216.645 147.027,216.877 146.697 C 217.108 146.366,217.299 146.214,217.301 146.359 C 217.304 146.509,217.390 146.500,217.504 146.336 C 217.779 145.941,220.974 144.833,226.041 143.376 C 230.725 142.030,231.950 141.505,232.973 140.410 L 233.649 139.685 233.577 134.099 C 233.483 126.721,233.355 125.580,232.515 124.581 C 232.145 124.142,231.742 123.845,231.619 123.921 C 231.496 123.997,231.203 123.867,230.968 123.632 C 230.733 123.397,230.541 123.289,230.541 123.392 C 230.541 123.495,230.366 123.435,230.153 123.258 C 229.940 123.082,229.333 122.915,228.803 122.887 C 228.274 122.860,227.840 122.741,227.839 122.623 C 227.838 122.505,227.686 122.433,227.500 122.463 C 227.314 122.493,226.980 122.442,226.757 122.350 C 226.132 122.092,221.116 120.802,219.546 120.496 C 212.786 119.179,208.721 110.492,211.906 104.169 C 212.607 102.777,213.826 101.265,216.824 98.069 C 219.017 95.732,220.811 93.703,220.811 93.560 C 220.811 93.418,220.999 93.229,221.230 93.140 C 222.342 92.713,223.004 89.439,222.092 88.876 C 221.929 88.775,221.770 88.530,221.741 88.332 C 221.653 87.749,220.510 85.946,220.228 85.946 C 220.085 85.946,220.043 85.824,220.135 85.676 C 220.227 85.527,220.200 85.405,220.075 85.405 C 219.950 85.405,219.705 85.071,219.529 84.662 C 218.707 82.747,216.042 78.498,215.186 77.738 C 214.402 77.043,212.586 76.894,210.811 77.380 C 207.846 78.190,203.337 79.494,201.486 80.076 C 199.365 80.743,196.867 80.829,194.730 80.308 C 193.986 80.127,193.270 79.994,193.138 80.012 C 193.006 80.031,192.824 79.938,192.733 79.806 C 192.642 79.674,192.131 79.301,191.598 78.977 C 187.593 76.546,185.352 71.310,186.309 66.620 C 186.545 65.461,186.681 64.420,186.611 64.307 C 186.541 64.193,186.589 64.059,186.719 64.010 C 187.027 63.891,188.920 55.555,188.918 54.324 C 188.916 52.719,188.155 51.872,185.517 50.541 C 184.192 49.872,183.019 49.203,182.910 49.054 C 182.777 48.874,182.708 48.874,182.703 49.054 C 182.698 49.213,182.613 49.203,182.496 49.029 C 182.387 48.867,180.910 47.985,179.214 47.070 C 175.816 45.236,174.527 44.976,173.649 45.946 C 173.380 46.243,173.026 46.487,172.864 46.489 C 172.701 46.490,172.031 47.037,171.375 47.705 C 170.719 48.373,170.255 48.919,170.343 48.919 C 170.432 48.919,169.241 50.155,167.696 51.666 C 166.152 53.177,164.937 54.493,164.997 54.590 C 165.057 54.686,164.747 54.977,164.310 55.236 C 163.872 55.495,163.514 55.821,163.514 55.961 C 163.514 56.101,163.397 56.216,163.255 56.216 C 163.113 56.216,162.414 56.560,161.701 56.980 C 160.988 57.400,160.313 57.758,160.200 57.775 C 160.087 57.792,159.428 57.891,158.735 57.994 C 156.897 58.270,153.784 58.281,153.784 58.012 C 153.784 57.884,153.581 57.858,153.332 57.953 C 153.084 58.048,152.811 58.031,152.724 57.915 C 152.638 57.798,151.858 57.348,150.991 56.915 C 149.522 56.180,146.351 53.472,146.351 52.952 C 146.351 52.824,146.139 52.472,145.878 52.168 C 145.618 51.864,145.405 51.477,145.405 51.309 C 145.405 50.977,144.032 46.270,142.533 41.460 C 140.921 36.291,141.139 36.377,130.676 36.751 M142.761 79.633 C 144.438 79.877,146.054 80.099,146.351 80.127 C 146.649 80.155,147.074 80.254,147.297 80.347 C 148.133 80.696,150.913 81.320,151.105 81.201 C 151.215 81.133,151.346 81.175,151.396 81.293 C 151.513 81.570,155.661 83.034,156.284 83.019 C 156.544 83.012,156.757 83.128,156.757 83.276 C 156.757 83.424,156.868 83.477,157.004 83.393 C 157.140 83.309,157.292 83.336,157.342 83.453 C 157.452 83.711,162.214 86.054,162.500 85.991 C 162.611 85.966,162.703 86.040,162.703 86.154 C 162.703 86.269,163.274 86.664,163.972 87.033 C 164.670 87.401,165.430 87.845,165.661 88.019 C 169.185 90.673,170.797 91.817,170.631 91.547 C 170.520 91.365,171.108 91.885,171.937 92.703 C 172.767 93.520,174.154 94.858,175.019 95.676 C 175.885 96.493,176.574 97.239,176.550 97.333 C 176.527 97.426,176.775 97.731,177.101 98.008 C 177.502 98.350,177.608 98.378,177.428 98.095 C 177.282 97.865,177.435 97.987,177.769 98.366 C 178.103 98.744,178.376 99.145,178.377 99.256 C 178.379 99.588,180.877 102.703,181.140 102.703 C 181.274 102.703,181.308 102.824,181.216 102.973 C 181.124 103.122,181.178 103.243,181.335 103.243 C 181.493 103.243,181.622 103.361,181.622 103.504 C 181.622 103.954,183.158 106.211,183.340 106.029 C 183.436 105.934,183.529 105.998,183.547 106.171 C 183.647 107.099,184.036 108.038,185.005 109.686 C 186.066 111.490,187.821 115.760,188.663 118.581 C 188.851 119.213,189.121 119.730,189.261 119.730 C 189.402 119.730,189.450 119.905,189.368 120.120 C 189.285 120.334,189.336 120.912,189.480 121.403 C 189.623 121.895,189.873 123.088,190.034 124.054 C 190.607 127.484,191.025 129.867,191.078 130.000 C 191.108 130.074,191.110 131.868,191.084 133.987 L 191.036 137.838 193.491 140.321 C 194.841 141.687,195.946 142.881,195.946 142.975 C 195.946 143.069,196.311 143.555,196.758 144.056 C 197.566 144.961,200.812 151.181,200.811 151.823 C 200.811 152.008,201.079 152.921,201.406 153.850 C 202.591 157.217,202.127 166.954,200.647 169.771 C 200.440 170.166,200.270 170.734,200.270 171.033 C 200.270 171.332,200.179 171.617,200.068 171.667 C 199.838 171.769,198.798 173.877,198.523 174.797 C 198.424 175.132,198.249 175.405,198.135 175.405 C 197.862 175.405,195.946 178.194,195.946 178.591 C 195.946 178.761,195.186 179.523,194.257 180.284 C 193.328 181.046,192.377 181.993,192.145 182.389 C 191.710 183.128,189.317 184.865,188.734 184.865 C 188.554 184.865,187.669 185.298,186.766 185.827 C 185.863 186.356,184.442 186.967,183.608 187.184 C 182.774 187.401,181.956 187.668,181.789 187.776 C 178.791 189.726,167.926 188.966,162.432 186.421 C 160.185 185.380,160.055 185.365,158.836 186.004 C 158.213 186.330,157.642 186.613,157.568 186.631 C 156.438 186.918,155.946 187.129,155.946 187.327 C 155.946 187.459,155.855 187.553,155.743 187.536 C 155.632 187.518,155.480 187.527,155.405 187.556 C 155.331 187.585,155.079 187.647,154.845 187.692 C 153.799 187.898,150.397 189.074,150.315 189.258 C 150.265 189.371,150.133 189.407,150.023 189.338 C 149.912 189.270,149.162 189.390,148.357 189.606 C 143.696 190.852,129.031 191.697,127.703 190.796 C 127.554 190.695,126.822 190.535,126.077 190.440 C 124.519 190.243,120.398 189.229,117.858 188.419 C 116.902 188.114,116.021 187.927,115.898 188.002 C 115.776 188.078,115.676 188.024,115.676 187.883 C 115.676 187.664,115.371 187.532,113.986 187.150 C 113.875 187.120,113.693 187.065,113.581 187.029 C 113.470 186.993,113.287 186.977,113.176 186.995 C 113.064 187.013,112.973 186.909,112.973 186.765 C 112.973 186.621,112.771 186.581,112.523 186.676 C 112.223 186.791,112.138 186.745,112.267 186.536 C 112.393 186.331,112.315 186.278,112.041 186.383 C 111.810 186.472,111.622 186.418,111.622 186.263 C 111.622 186.004,110.429 185.463,110.386 185.704 C 110.375 185.763,110.153 185.597,109.891 185.335 C 109.630 185.074,109.304 184.929,109.167 185.013 C 109.031 185.098,108.919 185.041,108.919 184.886 C 108.919 184.731,108.615 184.529,108.243 184.435 C 107.872 184.342,107.568 184.150,107.568 184.009 C 107.568 183.867,107.446 183.827,107.297 183.919 C 107.149 184.011,107.027 183.950,107.027 183.784 C 107.027 183.618,106.905 183.557,106.757 183.649 C 106.608 183.741,106.486 183.712,106.486 183.585 C 106.486 183.457,105.544 182.735,104.392 181.980 C 100.855 179.661,96.526 176.106,94.741 174.055 C 94.289 173.535,93.463 172.658,92.905 172.106 C 92.348 171.554,91.892 171.047,91.892 170.978 C 91.892 170.909,91.103 169.807,90.139 168.529 C 89.175 167.251,88.199 165.843,87.970 165.400 C 87.741 164.957,87.428 164.595,87.274 164.595 C 87.121 164.595,87.059 164.491,87.137 164.365 C 87.215 164.239,87.035 163.874,86.737 163.554 C 86.439 163.235,86.262 162.973,86.343 162.973 C 86.425 162.973,86.117 162.310,85.660 161.500 C 84.723 159.839,83.206 156.348,82.367 153.919 C 82.059 153.027,81.735 152.236,81.647 152.162 C 81.559 152.088,81.480 151.905,81.472 151.757 C 81.427 150.881,80.981 149.459,80.752 149.459 C 80.604 149.459,80.544 149.300,80.619 149.105 C 80.694 148.909,80.534 147.691,80.265 146.396 C 79.704 143.704,79.067 138.340,79.245 137.806 C 79.316 137.593,78.761 137.085,77.875 136.551 C 65.830 129.298,60.652 113.729,65.897 100.541 C 71.344 86.843,86.317 79.236,100.676 82.872 C 102.533 83.343,108.108 85.653,108.108 85.952 C 108.108 86.062,108.747 85.809,109.527 85.390 C 119.108 80.243,131.819 78.041,142.761 79.633 M173.378 127.430 C 173.982 127.932,175.694 128.857,175.270 128.453 C 175.122 128.311,174.514 127.921,173.919 127.588 C 173.324 127.254,173.081 127.183,173.378 127.430 " stroke="none" fill="#7e7e7e" fill-rule="evenodd"></path><path id="path2" d="M90.946 82.067 C 62.135 85.407,53.674 121.432,78.108 136.726 C 79.074 137.331,82.723 139.554,86.216 141.666 C 98.557 149.127,106.637 154.119,107.973 155.107 C 108.716 155.657,109.928 156.456,110.665 156.882 C 111.403 157.309,112.295 157.946,112.648 158.299 C 113.047 158.699,113.655 158.962,114.259 158.997 C 115.360 159.062,115.377 159.017,116.364 153.568 C 116.614 152.185,117.036 150.482,117.300 149.784 C 117.565 149.085,117.979 147.459,118.220 146.170 C 118.772 143.216,120.116 139.075,120.925 137.834 C 121.266 137.312,121.641 136.582,121.758 136.213 C 122.000 135.449,124.057 131.432,124.948 129.983 C 126.708 127.122,130.436 122.612,132.448 120.909 C 133.654 119.889,135.293 118.483,136.090 117.786 C 136.887 117.089,137.879 116.306,138.296 116.048 C 138.713 115.789,139.382 115.279,139.782 114.915 C 140.577 114.192,143.774 112.233,145.624 111.336 C 148.154 110.110,148.566 110.455,134.324 101.883 C 117.335 91.657,108.263 86.132,108.107 85.914 C 107.893 85.615,103.205 83.604,101.590 83.118 C 98.514 82.192,93.843 81.731,90.946 82.067 M177.568 98.378 C 177.885 98.824,178.206 99.189,178.280 99.189 C 178.354 99.189,178.155 98.824,177.838 98.378 C 177.520 97.932,177.200 97.568,177.125 97.568 C 177.051 97.568,177.250 97.932,177.568 98.378 M50.676 101.622 C 51.256 102.216,51.792 102.703,51.866 102.703 C 51.941 102.703,51.527 102.216,50.946 101.622 C 50.365 101.027,49.829 100.541,49.755 100.541 C 49.681 100.541,50.095 101.027,50.676 101.622 M214.850 148.311 L 213.919 149.324 214.932 148.393 C 215.876 147.526,216.070 147.297,215.864 147.297 C 215.819 147.297,215.363 147.753,214.850 148.311 M100.796 220.203 L 99.865 221.216 100.878 220.285 C 101.822 219.418,102.016 219.189,101.810 219.189 C 101.765 219.189,101.309 219.645,100.796 220.203 " stroke="none" fill="#040404" fill-rule="evenodd"></path><path id="path3" d="M130.206 36.678 C 130.542 36.742,131.029 36.740,131.287 36.672 C 131.545 36.605,131.270 36.552,130.676 36.555 C 130.081 36.558,129.870 36.613,130.206 36.678 M188.987 54.730 C 188.990 55.324,189.045 55.536,189.110 55.200 C 189.175 54.863,189.172 54.377,189.105 54.118 C 189.037 53.860,188.984 54.135,188.987 54.730 M55.071 81.272 C 55.407 81.337,55.893 81.334,56.152 81.267 C 56.410 81.199,56.135 81.146,55.541 81.149 C 54.946 81.152,54.735 81.208,55.071 81.272 M174.459 95.405 C 175.192 96.149,175.851 96.757,175.926 96.757 C 176.000 96.757,175.462 96.149,174.730 95.405 C 173.998 94.662,173.338 94.054,173.264 94.054 C 173.189 94.054,173.727 94.662,174.459 95.405 M189.792 124.054 C 189.792 124.574,189.848 124.787,189.916 124.527 C 189.984 124.267,189.984 123.841,189.916 123.581 C 189.848 123.321,189.792 123.534,189.792 124.054 M137.662 126.532 C 137.415 126.804,137.314 127.027,137.438 127.027 C 137.561 127.027,137.376 127.331,137.027 127.703 C 135.945 128.855,136.579 128.445,137.794 127.207 C 138.517 126.470,138.789 126.036,138.527 126.036 C 138.298 126.036,137.909 126.259,137.662 126.532 M233.587 131.351 C 233.587 132.020,233.640 132.294,233.704 131.959 C 233.769 131.625,233.769 131.078,233.704 130.743 C 233.640 130.409,233.587 130.682,233.587 131.351 M36.591 140.405 C 36.592 142.338,36.635 143.093,36.687 142.083 C 36.739 141.074,36.739 139.493,36.686 138.570 C 36.634 137.647,36.591 138.473,36.591 140.405 M79.189 138.243 C 79.189 138.615,79.236 138.919,79.293 138.919 C 79.350 138.919,79.455 138.615,79.526 138.243 C 79.597 137.872,79.550 137.568,79.422 137.568 C 79.294 137.568,79.189 137.872,79.189 138.243 M193.108 140.270 C 193.689 140.865,194.225 141.351,194.299 141.351 C 194.373 141.351,193.959 140.865,193.378 140.270 C 192.798 139.676,192.262 139.189,192.188 139.189 C 192.113 139.189,192.528 139.676,193.108 140.270 M95.394 174.662 C 96.514 175.855,96.757 176.070,96.757 175.867 C 96.757 175.824,96.179 175.246,95.473 174.583 L 94.189 173.378 95.394 174.662 M200.743 186.137 C 201.078 186.201,201.625 186.201,201.959 186.137 C 202.294 186.072,202.020 186.020,201.351 186.020 C 200.682 186.020,200.409 186.072,200.743 186.137 M214.797 189.110 C 215.132 189.174,215.679 189.174,216.014 189.110 C 216.348 189.045,216.074 188.993,215.405 188.993 C 214.736 188.993,214.463 189.045,214.797 189.110 M56.554 193.430 C 56.814 193.498,57.240 193.498,57.500 193.430 C 57.760 193.362,57.547 193.306,57.027 193.306 C 56.507 193.306,56.294 193.362,56.554 193.430 M159.797 210.997 C 160.057 211.065,160.483 211.065,160.743 210.997 C 161.003 210.929,160.791 210.874,160.270 210.874 C 159.750 210.874,159.537 210.929,159.797 210.997 M81.149 216.081 C 81.152 216.676,81.208 216.887,81.272 216.551 C 81.337 216.215,81.334 215.728,81.267 215.470 C 81.199 215.211,81.146 215.486,81.149 216.081 M137.500 233.704 C 137.834 233.769,138.382 233.769,138.716 233.704 C 139.051 233.640,138.777 233.587,138.108 233.587 C 137.439 233.587,137.166 233.640,137.500 233.704 " stroke="none" fill="#bcbcbc" fill-rule="evenodd"></path><path id="path4" d="M186.020 68.919 C 186.020 69.588,186.072 69.861,186.137 69.527 C 186.201 69.193,186.201 68.645,186.137 68.311 C 186.072 67.976,186.020 68.250,186.020 68.919 M80.622 72.703 C 80.622 73.520,80.672 73.855,80.734 73.446 C 80.796 73.037,80.796 72.368,80.734 71.959 C 80.672 71.551,80.622 71.885,80.622 72.703 M68.584 84.245 C 68.920 84.310,69.407 84.307,69.665 84.240 C 69.924 84.172,69.649 84.119,69.054 84.122 C 68.459 84.125,68.248 84.181,68.584 84.245 M58.176 113.919 C 58.179 114.514,58.235 114.725,58.299 114.389 C 58.364 114.053,58.361 113.566,58.294 113.308 C 58.226 113.049,58.173 113.324,58.176 113.919 M233.604 134.324 C 233.604 135.439,233.652 135.895,233.710 135.338 C 233.769 134.780,233.769 133.868,233.710 133.311 C 233.652 132.753,233.604 133.209,233.604 134.324 M194.983 179.527 L 194.189 180.405 195.068 179.612 C 195.551 179.175,195.946 178.780,195.946 178.733 C 195.946 178.524,195.723 178.708,194.983 179.527 M132.504 191.005 C 132.915 191.067,133.523 191.065,133.855 191.001 C 134.187 190.937,133.851 190.886,133.108 190.888 C 132.365 190.890,132.093 190.943,132.504 191.005 M189.533 197.838 C 189.533 198.507,189.586 198.780,189.650 198.446 C 189.715 198.111,189.715 197.564,189.650 197.230 C 189.586 196.895,189.533 197.169,189.533 197.838 M84.117 201.351 C 84.117 201.872,84.172 202.084,84.240 201.824 C 84.308 201.564,84.308 201.139,84.240 200.878 C 84.172 200.618,84.117 200.831,84.117 201.351 M134.802 233.709 C 135.288 233.770,136.018 233.768,136.424 233.707 C 136.830 233.645,136.432 233.596,135.541 233.597 C 134.649 233.599,134.316 233.649,134.802 233.709 " stroke="none" fill="#b4b4b4" fill-rule="evenodd"></path></g></svg>